<?xml version="1.0" encoding="UTF-8" standalone="no"?>
<!DOCTYPE svg PUBLIC "-//W3C//DTD SVG 1.1//EN"
 "http://www.w3.org/Graphics/SVG/1.1/DTD/svg11.dtd">
<!-- Generated by graphviz version 9.0.0 (20230911.1827)
 -->
<!-- Pages: 1 -->
<svg width="1566pt" height="210pt"
 viewBox="0.00 0.00 1565.88 210.00" xmlns="http://www.w3.org/2000/svg" xmlns:xlink="http://www.w3.org/1999/xlink">
<g id="graph0" class="graph" transform="scale(1 1) rotate(0) translate(4 206)">
<polygon fill="white" stroke="none" points="-4,4 -4,-206 1561.88,-206 1561.88,4 -4,4"/>
<!-- 4756381760 -->
<g id="node1" class="node">
<title>4756381760</title>
<polygon fill="none" stroke="black" points="3.75,-165.5 3.75,-201.5 194.25,-201.5 194.25,-165.5 3.75,-165.5"/>
<text text-anchor="middle" x="18.5" y="-178.7" font-family="Times,serif" font-size="14.00">x2</text>
<polyline fill="none" stroke="black" points="33.25,-166 33.25,-201.5"/>
<text text-anchor="middle" x="73.12" y="-178.7" font-family="Times,serif" font-size="14.00">data 0.0000</text>
<polyline fill="none" stroke="black" points="113,-166 113,-201.5"/>
<text text-anchor="middle" x="153.62" y="-178.7" font-family="Times,serif" font-size="14.00">grad 1.0000</text>
</g>
<!-- 4756330912* -->
<g id="node14" class="node">
<title>4756330912*</title>
<ellipse fill="none" stroke="black" cx="261" cy="-128.5" rx="27" ry="18"/>
<text text-anchor="middle" x="261" y="-123.45" font-family="Times,serif" font-size="14.00">*</text>
</g>
<!-- 4756381760&#45;&gt;4756330912* -->
<g id="edge13" class="edge">
<title>4756381760&#45;&gt;4756330912*</title>
<path fill="none" stroke="black" d="M172.12,-165.01C180.9,-162.35 189.7,-159.5 198,-156.5 208.09,-152.86 218.82,-148.27 228.47,-143.88"/>
<polygon fill="black" stroke="black" points="229.86,-147.09 237.45,-139.69 226.9,-140.75 229.86,-147.09"/>
</g>
<!-- 4756381808 -->
<g id="node2" class="node">
<title>4756381808</title>
<polygon fill="none" stroke="black" points="2.25,-110.5 2.25,-146.5 195.75,-146.5 195.75,-110.5 2.25,-110.5"/>
<text text-anchor="middle" x="18.5" y="-123.7" font-family="Times,serif" font-size="14.00">w2</text>
<polyline fill="none" stroke="black" points="34.75,-111 34.75,-146.5"/>
<text text-anchor="middle" x="74.62" y="-123.7" font-family="Times,serif" font-size="14.00">data 1.0000</text>
<polyline fill="none" stroke="black" points="114.5,-111 114.5,-146.5"/>
<text text-anchor="middle" x="155.12" y="-123.7" font-family="Times,serif" font-size="14.00">grad 0.0000</text>
</g>
<!-- 4756381808&#45;&gt;4756330912* -->
<g id="edge14" class="edge">
<title>4756381808&#45;&gt;4756330912*</title>
<path fill="none" stroke="black" d="M195.84,-128.5C205.14,-128.5 214.15,-128.5 222.32,-128.5"/>
<polygon fill="black" stroke="black" points="222.13,-132 232.13,-128.5 222.13,-125 222.13,-132"/>
</g>
<!-- 4756329088 -->
<g id="node3" class="node">
<title>4756329088</title>
<polygon fill="none" stroke="black" points="1374.13,-54.5 1374.13,-90.5 1557.88,-90.5 1557.88,-54.5 1374.13,-54.5"/>
<text text-anchor="middle" x="1385.5" y="-67.7" font-family="Times,serif" font-size="14.00">o</text>
<polyline fill="none" stroke="black" points="1396.88,-55 1396.88,-90.5"/>
<text text-anchor="middle" x="1436.75" y="-67.7" font-family="Times,serif" font-size="14.00">data 0.8814</text>
<polyline fill="none" stroke="black" points="1476.63,-55 1476.63,-90.5"/>
<text text-anchor="middle" x="1517.25" y="-67.7" font-family="Times,serif" font-size="14.00">grad 1.0000</text>
</g>
<!-- 4756329088ReLU -->
<g id="node4" class="node">
<title>4756329088ReLU</title>
<ellipse fill="none" stroke="black" cx="1304.69" cy="-72.5" rx="33.44" ry="18"/>
<text text-anchor="middle" x="1304.69" y="-67.45" font-family="Times,serif" font-size="14.00">ReLU</text>
</g>
<!-- 4756329088ReLU&#45;&gt;4756329088 -->
<g id="edge1" class="edge">
<title>4756329088ReLU&#45;&gt;4756329088</title>
<path fill="none" stroke="black" d="M1338.31,-72.5C1345.65,-72.5 1353.83,-72.5 1362.39,-72.5"/>
<polygon fill="black" stroke="black" points="1362.31,-76 1372.31,-72.5 1362.31,-69 1362.31,-76"/>
</g>
<!-- 4756332160 -->
<g id="node5" class="node">
<title>4756332160</title>
<polygon fill="none" stroke="black" points="668.25,-82.5 668.25,-118.5 925.5,-118.5 925.5,-82.5 668.25,-82.5"/>
<text text-anchor="middle" x="714.12" y="-95.7" font-family="Times,serif" font-size="14.00">x1w1 + x2w2</text>
<polyline fill="none" stroke="black" points="760,-83 760,-118.5"/>
<text text-anchor="middle" x="802.12" y="-95.7" font-family="Times,serif" font-size="14.00">data &#45;6.0000</text>
<polyline fill="none" stroke="black" points="844.25,-83 844.25,-118.5"/>
<text text-anchor="middle" x="884.88" y="-95.7" font-family="Times,serif" font-size="14.00">grad 1.0000</text>
</g>
<!-- 4756330864+ -->
<g id="node12" class="node">
<title>4756330864+</title>
<ellipse fill="none" stroke="black" cx="988.5" cy="-72.5" rx="27" ry="18"/>
<text text-anchor="middle" x="988.5" y="-67.45" font-family="Times,serif" font-size="14.00">+</text>
</g>
<!-- 4756332160&#45;&gt;4756330864+ -->
<g id="edge10" class="edge">
<title>4756332160&#45;&gt;4756330864+</title>
<path fill="none" stroke="black" d="M923.04,-82.02C932.9,-80.56 942.28,-79.18 950.67,-77.94"/>
<polygon fill="black" stroke="black" points="950.94,-81.44 960.33,-76.51 949.92,-74.51 950.94,-81.44"/>
</g>
<!-- 4756332160+ -->
<g id="node6" class="node">
<title>4756332160+</title>
<ellipse fill="none" stroke="black" cx="605.25" cy="-100.5" rx="27" ry="18"/>
<text text-anchor="middle" x="605.25" y="-95.45" font-family="Times,serif" font-size="14.00">+</text>
</g>
<!-- 4756332160+&#45;&gt;4756332160 -->
<g id="edge2" class="edge">
<title>4756332160+&#45;&gt;4756332160</title>
<path fill="none" stroke="black" d="M632.62,-100.5C639.63,-100.5 647.71,-100.5 656.45,-100.5"/>
<polygon fill="black" stroke="black" points="656.32,-104 666.32,-100.5 656.32,-97 656.32,-104"/>
</g>
<!-- 4756382336 -->
<g id="node7" class="node">
<title>4756382336</title>
<polygon fill="none" stroke="black" points="0,-55.5 0,-91.5 198,-91.5 198,-55.5 0,-55.5"/>
<text text-anchor="middle" x="16.25" y="-68.7" font-family="Times,serif" font-size="14.00">w1</text>
<polyline fill="none" stroke="black" points="32.5,-56 32.5,-91.5"/>
<text text-anchor="middle" x="74.62" y="-68.7" font-family="Times,serif" font-size="14.00">data &#45;3.0000</text>
<polyline fill="none" stroke="black" points="116.75,-56 116.75,-91.5"/>
<text text-anchor="middle" x="157.38" y="-68.7" font-family="Times,serif" font-size="14.00">grad 2.0000</text>
</g>
<!-- 4756382528* -->
<g id="node10" class="node">
<title>4756382528*</title>
<ellipse fill="none" stroke="black" cx="261" cy="-73.5" rx="27" ry="18"/>
<text text-anchor="middle" x="261" y="-68.45" font-family="Times,serif" font-size="14.00">*</text>
</g>
<!-- 4756382336&#45;&gt;4756382528* -->
<g id="edge8" class="edge">
<title>4756382336&#45;&gt;4756382528*</title>
<path fill="none" stroke="black" d="M198.14,-73.5C206.61,-73.5 214.8,-73.5 222.29,-73.5"/>
<polygon fill="black" stroke="black" points="222.29,-77 232.29,-73.5 222.29,-70 222.29,-77"/>
</g>
<!-- 4756382960 -->
<g id="node8" class="node">
<title>4756382960</title>
<polygon fill="none" stroke="black" points="705,-27.5 705,-63.5 888.75,-63.5 888.75,-27.5 705,-27.5"/>
<text text-anchor="middle" x="716.38" y="-40.7" font-family="Times,serif" font-size="14.00">b</text>
<polyline fill="none" stroke="black" points="727.75,-28 727.75,-63.5"/>
<text text-anchor="middle" x="767.62" y="-40.7" font-family="Times,serif" font-size="14.00">data 6.8814</text>
<polyline fill="none" stroke="black" points="807.5,-28 807.5,-63.5"/>
<text text-anchor="middle" x="848.12" y="-40.7" font-family="Times,serif" font-size="14.00">grad 1.0000</text>
</g>
<!-- 4756382960&#45;&gt;4756330864+ -->
<g id="edge9" class="edge">
<title>4756382960&#45;&gt;4756330864+</title>
<path fill="none" stroke="black" d="M889.08,-58.49C910.92,-61.6 933.02,-64.74 950.73,-67.26"/>
<polygon fill="black" stroke="black" points="950.07,-70.71 960.46,-68.65 951.05,-63.78 950.07,-70.71"/>
</g>
<!-- 4756382528 -->
<g id="node9" class="node">
<title>4756382528</title>
<polygon fill="none" stroke="black" points="324,-55.5 324,-91.5 542.25,-91.5 542.25,-55.5 324,-55.5"/>
<text text-anchor="middle" x="350.38" y="-68.7" font-family="Times,serif" font-size="14.00">x1*w1</text>
<polyline fill="none" stroke="black" points="376.75,-56 376.75,-91.5"/>
<text text-anchor="middle" x="418.88" y="-68.7" font-family="Times,serif" font-size="14.00">data &#45;6.0000</text>
<polyline fill="none" stroke="black" points="461,-56 461,-91.5"/>
<text text-anchor="middle" x="501.62" y="-68.7" font-family="Times,serif" font-size="14.00">grad 1.0000</text>
</g>
<!-- 4756382528&#45;&gt;4756332160+ -->
<g id="edge12" class="edge">
<title>4756382528&#45;&gt;4756332160+</title>
<path fill="none" stroke="black" d="M542.35,-90.68C551.12,-92.07 559.54,-93.4 567.19,-94.62"/>
<polygon fill="black" stroke="black" points="566.59,-98.07 577.02,-96.18 567.69,-91.15 566.59,-98.07"/>
</g>
<!-- 4756382528*&#45;&gt;4756382528 -->
<g id="edge3" class="edge">
<title>4756382528*&#45;&gt;4756382528</title>
<path fill="none" stroke="black" d="M288.21,-73.5C295.29,-73.5 303.43,-73.5 312.17,-73.5"/>
<polygon fill="black" stroke="black" points="312.01,-77 322.01,-73.5 312.01,-70 312.01,-77"/>
</g>
<!-- 4756330864 -->
<g id="node11" class="node">
<title>4756330864</title>
<polygon fill="none" stroke="black" points="1051.5,-54.5 1051.5,-90.5 1235.25,-90.5 1235.25,-54.5 1051.5,-54.5"/>
<text text-anchor="middle" x="1062.88" y="-67.7" font-family="Times,serif" font-size="14.00">n</text>
<polyline fill="none" stroke="black" points="1074.25,-55 1074.25,-90.5"/>
<text text-anchor="middle" x="1114.12" y="-67.7" font-family="Times,serif" font-size="14.00">data 0.8814</text>
<polyline fill="none" stroke="black" points="1154,-55 1154,-90.5"/>
<text text-anchor="middle" x="1194.62" y="-67.7" font-family="Times,serif" font-size="14.00">grad 1.0000</text>
</g>
<!-- 4756330864&#45;&gt;4756329088ReLU -->
<g id="edge11" class="edge">
<title>4756330864&#45;&gt;4756329088ReLU</title>
<path fill="none" stroke="black" d="M1235.66,-72.5C1243.88,-72.5 1251.92,-72.5 1259.44,-72.5"/>
<polygon fill="black" stroke="black" points="1259.25,-76 1269.25,-72.5 1259.25,-69 1259.25,-76"/>
</g>
<!-- 4756330864+&#45;&gt;4756330864 -->
<g id="edge4" class="edge">
<title>4756330864+&#45;&gt;4756330864</title>
<path fill="none" stroke="black" d="M1015.78,-72.5C1022.92,-72.5 1031.11,-72.5 1039.82,-72.5"/>
<polygon fill="black" stroke="black" points="1039.56,-76 1049.56,-72.5 1039.56,-69 1039.56,-76"/>
</g>
<!-- 4756330912 -->
<g id="node13" class="node">
<title>4756330912</title>
<polygon fill="none" stroke="black" points="326.25,-110.5 326.25,-146.5 540,-146.5 540,-110.5 326.25,-110.5"/>
<text text-anchor="middle" x="352.62" y="-123.7" font-family="Times,serif" font-size="14.00">x2*w2</text>
<polyline fill="none" stroke="black" points="379,-111 379,-146.5"/>
<text text-anchor="middle" x="418.88" y="-123.7" font-family="Times,serif" font-size="14.00">data 0.0000</text>
<polyline fill="none" stroke="black" points="458.75,-111 458.75,-146.5"/>
<text text-anchor="middle" x="499.38" y="-123.7" font-family="Times,serif" font-size="14.00">grad 1.0000</text>
</g>
<!-- 4756330912&#45;&gt;4756332160+ -->
<g id="edge6" class="edge">
<title>4756330912&#45;&gt;4756332160+</title>
<path fill="none" stroke="black" d="M540.42,-111.01C549.89,-109.45 559,-107.95 567.21,-106.6"/>
<polygon fill="black" stroke="black" points="567.75,-110.05 577.05,-104.98 566.62,-103.15 567.75,-110.05"/>
</g>
<!-- 4756330912*&#45;&gt;4756330912 -->
<g id="edge5" class="edge">
<title>4756330912*&#45;&gt;4756330912</title>
<path fill="none" stroke="black" d="M288.21,-128.5C296,-128.5 305.08,-128.5 314.82,-128.5"/>
<polygon fill="black" stroke="black" points="314.55,-132 324.55,-128.5 314.55,-125 314.55,-132"/>
</g>
<!-- 4756382144 -->
<g id="node15" class="node">
<title>4756382144</title>
<polygon fill="none" stroke="black" points="1.5,-0.5 1.5,-36.5 196.5,-36.5 196.5,-0.5 1.5,-0.5"/>
<text text-anchor="middle" x="16.25" y="-13.7" font-family="Times,serif" font-size="14.00">x1</text>
<polyline fill="none" stroke="black" points="31,-1 31,-36.5"/>
<text text-anchor="middle" x="70.88" y="-13.7" font-family="Times,serif" font-size="14.00">data 2.0000</text>
<polyline fill="none" stroke="black" points="110.75,-1 110.75,-36.5"/>
<text text-anchor="middle" x="153.62" y="-13.7" font-family="Times,serif" font-size="14.00">grad &#45;3.0000</text>
</g>
<!-- 4756382144&#45;&gt;4756382528* -->
<g id="edge7" class="edge">
<title>4756382144&#45;&gt;4756382528*</title>
<path fill="none" stroke="black" d="M168.91,-36.94C178.74,-39.93 188.67,-43.15 198,-46.5 207.96,-50.07 218.58,-54.47 228.18,-58.68"/>
<polygon fill="black" stroke="black" points="226.54,-61.78 237.1,-62.67 229.4,-55.39 226.54,-61.78"/>
</g>
</g>
</svg>