<?xml version="1.0" encoding="UTF-8" standalone="no"?>
<!DOCTYPE svg PUBLIC "-//W3C//DTD SVG 1.1//EN"
 "http://www.w3.org/Graphics/SVG/1.1/DTD/svg11.dtd">
<!-- Generated by graphviz version 9.0.0 (20230911.1827)
 -->
<!-- Pages: 1 -->
<svg width="822pt" height="128pt"
 viewBox="0.00 0.00 821.50 128.00" xmlns="http://www.w3.org/2000/svg" xmlns:xlink="http://www.w3.org/1999/xlink">
<g id="graph0" class="graph" transform="scale(1 1) rotate(0) translate(4 124)">
<polygon fill="white" stroke="none" points="-4,4 -4,-124 817.5,-124 817.5,4 -4,4"/>
<!-- 140608927854112 -->
<g id="node1" class="node">
<title>140608927854112</title>
<polygon fill="none" stroke="black" points="475.75,-82.5 475.75,-118.5 576,-118.5 576,-82.5 475.75,-82.5"/>
<text text-anchor="middle" x="486" y="-95.7" font-family="Times,serif" font-size="14.00">f</text>
<polyline fill="none" stroke="black" points="496.25,-83 496.25,-118.5"/>
<text text-anchor="middle" x="536.12" y="-95.7" font-family="Times,serif" font-size="14.00">data 2.0000</text>
</g>
<!-- 140608378143120* -->
<g id="node9" class="node">
<title>140608378143120*</title>
<ellipse fill="none" stroke="black" cx="642" cy="-72.5" rx="27" ry="18"/>
<text text-anchor="middle" x="642" y="-67.45" font-family="Times,serif" font-size="14.00">*</text>
</g>
<!-- 140608927854112&#45;&gt;140608378143120* -->
<g id="edge9" class="edge">
<title>140608927854112&#45;&gt;140608378143120*</title>
<path fill="none" stroke="black" d="M576.27,-88.38C586.01,-85.99 596.06,-83.53 605.24,-81.27"/>
<polygon fill="black" stroke="black" points="605.98,-84.7 614.86,-78.91 604.31,-77.9 605.98,-84.7"/>
</g>
<!-- 140608378145328 -->
<g id="node2" class="node">
<title>140608378145328</title>
<polygon fill="none" stroke="black" points="472.75,-27.5 472.75,-63.5 579,-63.5 579,-27.5 472.75,-27.5"/>
<text text-anchor="middle" x="483.75" y="-40.7" font-family="Times,serif" font-size="14.00">e</text>
<polyline fill="none" stroke="black" points="494.75,-28 494.75,-63.5"/>
<text text-anchor="middle" x="536.88" y="-40.7" font-family="Times,serif" font-size="14.00">data &#45;4.0000</text>
</g>
<!-- 140608378145328&#45;&gt;140608378143120* -->
<g id="edge5" class="edge">
<title>140608378145328&#45;&gt;140608378143120*</title>
<path fill="none" stroke="black" d="M579.26,-57.89C588.02,-59.97 596.93,-62.07 605.16,-64.02"/>
<polygon fill="black" stroke="black" points="604.23,-67.4 614.77,-66.29 605.84,-60.59 604.23,-67.4"/>
</g>
<!-- 140608378145328+ -->
<g id="node3" class="node">
<title>140608378145328+</title>
<ellipse fill="none" stroke="black" cx="409.75" cy="-45.5" rx="27" ry="18"/>
<text text-anchor="middle" x="409.75" y="-40.45" font-family="Times,serif" font-size="14.00">+</text>
</g>
<!-- 140608378145328+&#45;&gt;140608378145328 -->
<g id="edge1" class="edge">
<title>140608378145328+&#45;&gt;140608378145328</title>
<path fill="none" stroke="black" d="M437.22,-45.5C444.46,-45.5 452.64,-45.5 461.01,-45.5"/>
<polygon fill="black" stroke="black" points="460.98,-49 470.98,-45.5 460.98,-42 460.98,-49"/>
</g>
<!-- 140608378146384 -->
<g id="node4" class="node">
<title>140608378146384</title>
<polygon fill="none" stroke="black" points="233,-55.5 233,-91.5 346.75,-91.5 346.75,-55.5 233,-55.5"/>
<text text-anchor="middle" x="244.38" y="-68.7" font-family="Times,serif" font-size="14.00">d</text>
<polyline fill="none" stroke="black" points="255.75,-56 255.75,-91.5"/>
<text text-anchor="middle" x="301.25" y="-68.7" font-family="Times,serif" font-size="14.00">data &#45;12.0000</text>
</g>
<!-- 140608378146384&#45;&gt;140608378145328+ -->
<g id="edge4" class="edge">
<title>140608378146384&#45;&gt;140608378145328+</title>
<path fill="none" stroke="black" d="M347.05,-60.16C355.84,-58.07 364.7,-55.96 372.87,-54.02"/>
<polygon fill="black" stroke="black" points="373.48,-57.48 382.4,-51.76 371.86,-50.67 373.48,-57.48"/>
</g>
<!-- 140608378146384* -->
<g id="node5" class="node">
<title>140608378146384*</title>
<ellipse fill="none" stroke="black" cx="170" cy="-73.5" rx="27" ry="18"/>
<text text-anchor="middle" x="170" y="-68.45" font-family="Times,serif" font-size="14.00">*</text>
</g>
<!-- 140608378146384*&#45;&gt;140608378146384 -->
<g id="edge2" class="edge">
<title>140608378146384*&#45;&gt;140608378146384</title>
<path fill="none" stroke="black" d="M197.45,-73.5C204.64,-73.5 212.76,-73.5 221.13,-73.5"/>
<polygon fill="black" stroke="black" points="221.11,-77 231.11,-73.5 221.11,-70 221.11,-77"/>
</g>
<!-- 140608391844576 -->
<g id="node6" class="node">
<title>140608391844576</title>
<polygon fill="none" stroke="black" points="0,-83.5 0,-119.5 107,-119.5 107,-83.5 0,-83.5"/>
<text text-anchor="middle" x="11.38" y="-96.7" font-family="Times,serif" font-size="14.00">b</text>
<polyline fill="none" stroke="black" points="22.75,-84 22.75,-119.5"/>
<text text-anchor="middle" x="64.88" y="-96.7" font-family="Times,serif" font-size="14.00">data &#45;3.0000</text>
</g>
<!-- 140608391844576&#45;&gt;140608378146384* -->
<g id="edge7" class="edge">
<title>140608391844576&#45;&gt;140608378146384*</title>
<path fill="none" stroke="black" d="M107.39,-88.57C116.15,-86.42 125.05,-84.25 133.26,-82.24"/>
<polygon fill="black" stroke="black" points="133.97,-85.67 142.85,-79.89 132.3,-78.87 133.97,-85.67"/>
</g>
<!-- 140608378144992 -->
<g id="node7" class="node">
<title>140608378144992</title>
<polygon fill="none" stroke="black" points="239,-0.5 239,-36.5 340.75,-36.5 340.75,-0.5 239,-0.5"/>
<text text-anchor="middle" x="250" y="-13.7" font-family="Times,serif" font-size="14.00">c</text>
<polyline fill="none" stroke="black" points="261,-1 261,-36.5"/>
<text text-anchor="middle" x="300.88" y="-13.7" font-family="Times,serif" font-size="14.00">data 8.0000</text>
</g>
<!-- 140608378144992&#45;&gt;140608378145328+ -->
<g id="edge8" class="edge">
<title>140608378144992&#45;&gt;140608378145328+</title>
<path fill="none" stroke="black" d="M341.21,-30.03C351.82,-32.46 362.82,-34.98 372.77,-37.26"/>
<polygon fill="black" stroke="black" points="371.9,-40.65 382.43,-39.47 373.46,-33.83 371.9,-40.65"/>
</g>
<!-- 140608378143120 -->
<g id="node8" class="node">
<title>140608378143120</title>
<polygon fill="none" stroke="black" points="705,-54.5 705,-90.5 813.5,-90.5 813.5,-54.5 705,-54.5"/>
<text text-anchor="middle" x="717.12" y="-67.7" font-family="Times,serif" font-size="14.00">L</text>
<polyline fill="none" stroke="black" points="729.25,-55 729.25,-90.5"/>
<text text-anchor="middle" x="771.38" y="-67.7" font-family="Times,serif" font-size="14.00">data &#45;8.0000</text>
</g>
<!-- 140608378143120*&#45;&gt;140608378143120 -->
<g id="edge3" class="edge">
<title>140608378143120*&#45;&gt;140608378143120</title>
<path fill="none" stroke="black" d="M669.44,-72.5C676.66,-72.5 684.81,-72.5 693.18,-72.5"/>
<polygon fill="black" stroke="black" points="693.14,-76 703.14,-72.5 693.14,-69 693.14,-76"/>
</g>
<!-- 140608391846832 -->
<g id="node10" class="node">
<title>140608391846832</title>
<polygon fill="none" stroke="black" points="2.62,-28.5 2.62,-64.5 104.38,-64.5 104.38,-28.5 2.62,-28.5"/>
<text text-anchor="middle" x="13.62" y="-41.7" font-family="Times,serif" font-size="14.00">a</text>
<polyline fill="none" stroke="black" points="24.62,-29 24.62,-64.5"/>
<text text-anchor="middle" x="64.5" y="-41.7" font-family="Times,serif" font-size="14.00">data 4.0000</text>
</g>
<!-- 140608391846832&#45;&gt;140608378146384* -->
<g id="edge6" class="edge">
<title>140608391846832&#45;&gt;140608378146384*</title>
<path fill="none" stroke="black" d="M104.72,-58.34C114.16,-60.57 123.86,-62.86 132.78,-64.96"/>
<polygon fill="black" stroke="black" points="131.94,-68.36 142.48,-67.25 133.55,-61.54 131.94,-68.36"/>
</g>
</g>
</svg>
