<?xml version="1.0" encoding="UTF-8" standalone="no"?>
<!DOCTYPE svg PUBLIC "-//W3C//DTD SVG 1.1//EN"
 "http://www.w3.org/Graphics/SVG/1.1/DTD/svg11.dtd">
<!-- Generated by graphviz version 9.0.0 (20230911.1827)
 -->
<!-- Pages: 1 -->
<svg width="1147pt" height="128pt"
 viewBox="0.00 0.00 1146.50 128.00" xmlns="http://www.w3.org/2000/svg" xmlns:xlink="http://www.w3.org/1999/xlink">
<g id="graph0" class="graph" transform="scale(1 1) rotate(0) translate(4 124)">
<polygon fill="white" stroke="none" points="-4,4 -4,-124 1142.5,-124 1142.5,4 -4,4"/>
<!-- 4895599728 -->
<g id="node1" class="node">
<title>4895599728</title>
<polygon fill="none" stroke="black" points="320.25,-83.5 320.25,-119.5 503.25,-119.5 503.25,-83.5 320.25,-83.5"/>
<text text-anchor="middle" x="331.25" y="-96.7" font-family="Times,serif" font-size="14.00">c</text>
<polyline fill="none" stroke="black" points="342.25,-84 342.25,-119.5"/>
<text text-anchor="middle" x="382.12" y="-96.7" font-family="Times,serif" font-size="14.00">data 8.0000</text>
<polyline fill="none" stroke="black" points="422,-84 422,-119.5"/>
<text text-anchor="middle" x="462.62" y="-96.7" font-family="Times,serif" font-size="14.00">grad 0.0000</text>
</g>
<!-- 4895599440+ -->
<g id="node6" class="node">
<title>4895599440+</title>
<ellipse fill="none" stroke="black" cx="572.25" cy="-73.5" rx="27" ry="18"/>
<text text-anchor="middle" x="572.25" y="-68.45" font-family="Times,serif" font-size="14.00">+</text>
</g>
<!-- 4895599728&#45;&gt;4895599440+ -->
<g id="edge7" class="edge">
<title>4895599728&#45;&gt;4895599440+</title>
<path fill="none" stroke="black" d="M503.57,-85.46C514.47,-83.53 525.06,-81.66 534.51,-79.99"/>
<polygon fill="black" stroke="black" points="535.08,-83.44 544.32,-78.26 533.86,-76.55 535.08,-83.44"/>
</g>
<!-- 4895600304 -->
<g id="node2" class="node">
<title>4895600304</title>
<polygon fill="none" stroke="black" points="948.75,-27.5 948.75,-63.5 1138.5,-63.5 1138.5,-27.5 948.75,-27.5"/>
<text text-anchor="middle" x="960.88" y="-40.7" font-family="Times,serif" font-size="14.00">L</text>
<polyline fill="none" stroke="black" points="973,-28 973,-63.5"/>
<text text-anchor="middle" x="1015.12" y="-40.7" font-family="Times,serif" font-size="14.00">data &#45;8.0000</text>
<polyline fill="none" stroke="black" points="1057.25,-28 1057.25,-63.5"/>
<text text-anchor="middle" x="1097.88" y="-40.7" font-family="Times,serif" font-size="14.00">grad 1.0000</text>
</g>
<!-- 4895600304* -->
<g id="node3" class="node">
<title>4895600304*</title>
<ellipse fill="none" stroke="black" cx="885.75" cy="-45.5" rx="27" ry="18"/>
<text text-anchor="middle" x="885.75" y="-40.45" font-family="Times,serif" font-size="14.00">*</text>
</g>
<!-- 4895600304*&#45;&gt;4895600304 -->
<g id="edge1" class="edge">
<title>4895600304*&#45;&gt;4895600304</title>
<path fill="none" stroke="black" d="M913.19,-45.5C920.34,-45.5 928.53,-45.5 937.24,-45.5"/>
<polygon fill="black" stroke="black" points="937.01,-49 947.01,-45.5 937.01,-42 937.01,-49"/>
</g>
<!-- 4895599392 -->
<g id="node4" class="node">
<title>4895599392</title>
<polygon fill="none" stroke="black" points="2.62,-56.5 2.62,-92.5 185.62,-92.5 185.62,-56.5 2.62,-56.5"/>
<text text-anchor="middle" x="13.62" y="-69.7" font-family="Times,serif" font-size="14.00">a</text>
<polyline fill="none" stroke="black" points="24.62,-57 24.62,-92.5"/>
<text text-anchor="middle" x="64.5" y="-69.7" font-family="Times,serif" font-size="14.00">data 4.0000</text>
<polyline fill="none" stroke="black" points="104.38,-57 104.38,-92.5"/>
<text text-anchor="middle" x="145" y="-69.7" font-family="Times,serif" font-size="14.00">grad 0.0000</text>
</g>
<!-- 4895600544* -->
<g id="node10" class="node">
<title>4895600544*</title>
<ellipse fill="none" stroke="black" cx="251.25" cy="-46.5" rx="27" ry="18"/>
<text text-anchor="middle" x="251.25" y="-41.45" font-family="Times,serif" font-size="14.00">*</text>
</g>
<!-- 4895599392&#45;&gt;4895600544* -->
<g id="edge5" class="edge">
<title>4895599392&#45;&gt;4895600544*</title>
<path fill="none" stroke="black" d="M185.81,-58.13C195.66,-56.35 205.21,-54.63 213.82,-53.08"/>
<polygon fill="black" stroke="black" points="214.19,-56.57 223.41,-51.34 212.95,-49.68 214.19,-56.57"/>
</g>
<!-- 4895599440 -->
<g id="node5" class="node">
<title>4895599440</title>
<polygon fill="none" stroke="black" points="635.25,-55.5 635.25,-91.5 822.75,-91.5 822.75,-55.5 635.25,-55.5"/>
<text text-anchor="middle" x="646.25" y="-68.7" font-family="Times,serif" font-size="14.00">e</text>
<polyline fill="none" stroke="black" points="657.25,-56 657.25,-91.5"/>
<text text-anchor="middle" x="699.38" y="-68.7" font-family="Times,serif" font-size="14.00">data &#45;4.0000</text>
<polyline fill="none" stroke="black" points="741.5,-56 741.5,-91.5"/>
<text text-anchor="middle" x="782.12" y="-68.7" font-family="Times,serif" font-size="14.00">grad 2.0000</text>
</g>
<!-- 4895599440&#45;&gt;4895600304* -->
<g id="edge4" class="edge">
<title>4895599440&#45;&gt;4895600304*</title>
<path fill="none" stroke="black" d="M823.14,-56.65C831.9,-55.06 840.38,-53.53 848.09,-52.13"/>
<polygon fill="black" stroke="black" points="848.46,-55.62 857.68,-50.4 847.21,-48.73 848.46,-55.62"/>
</g>
<!-- 4895599440+&#45;&gt;4895599440 -->
<g id="edge2" class="edge">
<title>4895599440+&#45;&gt;4895599440</title>
<path fill="none" stroke="black" d="M599.5,-73.5C606.66,-73.5 614.87,-73.5 623.6,-73.5"/>
<polygon fill="black" stroke="black" points="623.39,-77 633.39,-73.5 623.39,-70 623.39,-77"/>
</g>
<!-- 4895596896 -->
<g id="node7" class="node">
<title>4895596896</title>
<polygon fill="none" stroke="black" points="0,-1.5 0,-37.5 188.25,-37.5 188.25,-1.5 0,-1.5"/>
<text text-anchor="middle" x="11.38" y="-14.7" font-family="Times,serif" font-size="14.00">b</text>
<polyline fill="none" stroke="black" points="22.75,-2 22.75,-37.5"/>
<text text-anchor="middle" x="64.88" y="-14.7" font-family="Times,serif" font-size="14.00">data &#45;3.0000</text>
<polyline fill="none" stroke="black" points="107,-2 107,-37.5"/>
<text text-anchor="middle" x="147.62" y="-14.7" font-family="Times,serif" font-size="14.00">grad 0.0000</text>
</g>
<!-- 4895596896&#45;&gt;4895600544* -->
<g id="edge6" class="edge">
<title>4895596896&#45;&gt;4895600544*</title>
<path fill="none" stroke="black" d="M188.49,-35.75C197.27,-37.28 205.77,-38.76 213.51,-40.1"/>
<polygon fill="black" stroke="black" points="212.66,-43.51 223.11,-41.78 213.86,-36.61 212.66,-43.51"/>
</g>
<!-- 4895600016 -->
<g id="node8" class="node">
<title>4895600016</title>
<polygon fill="none" stroke="black" points="636,-0.5 636,-36.5 822,-36.5 822,-0.5 636,-0.5"/>
<text text-anchor="middle" x="646.25" y="-13.7" font-family="Times,serif" font-size="14.00">f</text>
<polyline fill="none" stroke="black" points="656.5,-1 656.5,-36.5"/>
<text text-anchor="middle" x="696.38" y="-13.7" font-family="Times,serif" font-size="14.00">data 2.0000</text>
<polyline fill="none" stroke="black" points="736.25,-1 736.25,-36.5"/>
<text text-anchor="middle" x="779.12" y="-13.7" font-family="Times,serif" font-size="14.00">grad &#45;4.0000</text>
</g>
<!-- 4895600016&#45;&gt;4895600304* -->
<g id="edge8" class="edge">
<title>4895600016&#45;&gt;4895600304*</title>
<path fill="none" stroke="black" d="M822.25,-34.6C831.39,-36.19 840.23,-37.73 848.25,-39.13"/>
<polygon fill="black" stroke="black" points="847.41,-42.54 857.87,-40.81 848.62,-35.64 847.41,-42.54"/>
</g>
<!-- 4895600544 -->
<g id="node9" class="node">
<title>4895600544</title>
<polygon fill="none" stroke="black" points="314.25,-28.5 314.25,-64.5 509.25,-64.5 509.25,-28.5 314.25,-28.5"/>
<text text-anchor="middle" x="325.62" y="-41.7" font-family="Times,serif" font-size="14.00">d</text>
<polyline fill="none" stroke="black" points="337,-29 337,-64.5"/>
<text text-anchor="middle" x="382.5" y="-41.7" font-family="Times,serif" font-size="14.00">data &#45;12.0000</text>
<polyline fill="none" stroke="black" points="428,-29 428,-64.5"/>
<text text-anchor="middle" x="468.62" y="-41.7" font-family="Times,serif" font-size="14.00">grad 0.0000</text>
</g>
<!-- 4895600544&#45;&gt;4895599440+ -->
<g id="edge9" class="edge">
<title>4895600544&#45;&gt;4895599440+</title>
<path fill="none" stroke="black" d="M509.52,-62.98C518.33,-64.49 526.85,-65.94 534.59,-67.25"/>
<polygon fill="black" stroke="black" points="533.74,-70.66 544.19,-68.89 534.92,-63.76 533.74,-70.66"/>
</g>
<!-- 4895600544*&#45;&gt;4895600544 -->
<g id="edge3" class="edge">
<title>4895600544*&#45;&gt;4895600544</title>
<path fill="none" stroke="black" d="M278.42,-46.5C285.59,-46.5 293.84,-46.5 302.63,-46.5"/>
<polygon fill="black" stroke="black" points="302.51,-50 312.51,-46.5 302.51,-43 302.51,-50"/>
</g>
</g>
</svg>
