<?xml version="1.0" encoding="UTF-8" standalone="no"?>
<!DOCTYPE svg PUBLIC "-//W3C//DTD SVG 1.1//EN"
 "http://www.w3.org/Graphics/SVG/1.1/DTD/svg11.dtd">
<!-- Generated by graphviz version 9.0.0 (20230911.1827)
 -->
<!-- Pages: 1 -->
<svg width="826pt" height="100pt"
 viewBox="0.00 0.00 826.25 100.00" xmlns="http://www.w3.org/2000/svg" xmlns:xlink="http://www.w3.org/1999/xlink">
<g id="graph0" class="graph" transform="scale(1 1) rotate(0) translate(4 96)">
<polygon fill="white" stroke="none" points="-4,4 -4,-96 822.25,-96 822.25,4 -4,4"/>
<!-- 4818748992 -->
<g id="node1" class="node">
<title>4818748992</title>
<polygon fill="none" stroke="black" points="0,-55.5 0,-91.5 192,-91.5 192,-55.5 0,-55.5"/>
<text text-anchor="middle" x="11" y="-68.7" font-family="Times,serif" font-size="14.00">a</text>
<polyline fill="none" stroke="black" points="22,-56 22,-91.5"/>
<text text-anchor="middle" x="64.12" y="-68.7" font-family="Times,serif" font-size="14.00">data &#45;2.0000</text>
<polyline fill="none" stroke="black" points="106.25,-56 106.25,-91.5"/>
<text text-anchor="middle" x="149.12" y="-68.7" font-family="Times,serif" font-size="14.00">grad &#45;3.0000</text>
</g>
<!-- 4818748512+ -->
<g id="node3" class="node">
<title>4818748512+</title>
<ellipse fill="none" stroke="black" cx="255" cy="-73.5" rx="27" ry="18"/>
<text text-anchor="middle" x="255" y="-68.45" font-family="Times,serif" font-size="14.00">+</text>
</g>
<!-- 4818748992&#45;&gt;4818748512+ -->
<g id="edge8" class="edge">
<title>4818748992&#45;&gt;4818748512+</title>
<path fill="none" stroke="black" d="M192.4,-73.5C200.73,-73.5 208.79,-73.5 216.18,-73.5"/>
<polygon fill="black" stroke="black" points="216.05,-77 226.05,-73.5 216.05,-70 216.05,-77"/>
</g>
<!-- 4818748368* -->
<g id="node8" class="node">
<title>4818748368*</title>
<ellipse fill="none" stroke="black" cx="255" cy="-18.5" rx="27" ry="18"/>
<text text-anchor="middle" x="255" y="-13.45" font-family="Times,serif" font-size="14.00">*</text>
</g>
<!-- 4818748992&#45;&gt;4818748368* -->
<g id="edge7" class="edge">
<title>4818748992&#45;&gt;4818748368*</title>
<path fill="none" stroke="black" d="M166.39,-55.06C175.08,-52.38 183.79,-49.5 192,-46.5 201.99,-42.85 212.63,-38.3 222.22,-33.93"/>
<polygon fill="black" stroke="black" points="223.55,-37.17 231.15,-29.78 220.6,-30.83 223.55,-37.17"/>
</g>
<!-- 4818748512 -->
<g id="node2" class="node">
<title>4818748512</title>
<polygon fill="none" stroke="black" points="318.38,-55.5 318.38,-91.5 505.88,-91.5 505.88,-55.5 318.38,-55.5"/>
<text text-anchor="middle" x="329.38" y="-68.7" font-family="Times,serif" font-size="14.00">e</text>
<polyline fill="none" stroke="black" points="340.38,-56 340.38,-91.5"/>
<text text-anchor="middle" x="380.25" y="-68.7" font-family="Times,serif" font-size="14.00">data 1.0000</text>
<polyline fill="none" stroke="black" points="420.12,-56 420.12,-91.5"/>
<text text-anchor="middle" x="463" y="-68.7" font-family="Times,serif" font-size="14.00">grad &#45;6.0000</text>
</g>
<!-- 4818747744* -->
<g id="node5" class="node">
<title>4818747744*</title>
<ellipse fill="none" stroke="black" cx="569.25" cy="-45.5" rx="27" ry="18"/>
<text text-anchor="middle" x="569.25" y="-40.45" font-family="Times,serif" font-size="14.00">*</text>
</g>
<!-- 4818748512&#45;&gt;4818747744* -->
<g id="edge5" class="edge">
<title>4818748512&#45;&gt;4818747744*</title>
<path fill="none" stroke="black" d="M506.05,-56.73C514.96,-55.12 523.59,-53.56 531.44,-52.14"/>
<polygon fill="black" stroke="black" points="531.99,-55.6 541.21,-50.38 530.75,-48.71 531.99,-55.6"/>
</g>
<!-- 4818748512+&#45;&gt;4818748512 -->
<g id="edge1" class="edge">
<title>4818748512+&#45;&gt;4818748512</title>
<path fill="none" stroke="black" d="M282.31,-73.5C289.55,-73.5 297.86,-73.5 306.7,-73.5"/>
<polygon fill="black" stroke="black" points="306.62,-77 316.62,-73.5 306.62,-70 306.62,-77"/>
</g>
<!-- 4818747744 -->
<g id="node4" class="node">
<title>4818747744</title>
<polygon fill="none" stroke="black" points="632.25,-27.5 632.25,-63.5 818.25,-63.5 818.25,-27.5 632.25,-27.5"/>
<text text-anchor="middle" x="642.5" y="-40.7" font-family="Times,serif" font-size="14.00">f</text>
<polyline fill="none" stroke="black" points="652.75,-28 652.75,-63.5"/>
<text text-anchor="middle" x="694.88" y="-40.7" font-family="Times,serif" font-size="14.00">data &#45;6.0000</text>
<polyline fill="none" stroke="black" points="737,-28 737,-63.5"/>
<text text-anchor="middle" x="777.62" y="-40.7" font-family="Times,serif" font-size="14.00">grad 1.0000</text>
</g>
<!-- 4818747744*&#45;&gt;4818747744 -->
<g id="edge2" class="edge">
<title>4818747744*&#45;&gt;4818747744</title>
<path fill="none" stroke="black" d="M596.72,-45.5C603.86,-45.5 612.03,-45.5 620.71,-45.5"/>
<polygon fill="black" stroke="black" points="620.44,-49 630.44,-45.5 620.44,-42 620.44,-49"/>
</g>
<!-- 4818747792 -->
<g id="node6" class="node">
<title>4818747792</title>
<polygon fill="none" stroke="black" points="1.88,-0.5 1.88,-36.5 190.12,-36.5 190.12,-0.5 1.88,-0.5"/>
<text text-anchor="middle" x="13.25" y="-13.7" font-family="Times,serif" font-size="14.00">b</text>
<polyline fill="none" stroke="black" points="24.62,-1 24.62,-36.5"/>
<text text-anchor="middle" x="64.5" y="-13.7" font-family="Times,serif" font-size="14.00">data 3.0000</text>
<polyline fill="none" stroke="black" points="104.38,-1 104.38,-36.5"/>
<text text-anchor="middle" x="147.25" y="-13.7" font-family="Times,serif" font-size="14.00">grad &#45;8.0000</text>
</g>
<!-- 4818747792&#45;&gt;4818748512+ -->
<g id="edge6" class="edge">
<title>4818747792&#45;&gt;4818748512+</title>
<path fill="none" stroke="black" d="M163.53,-36.96C173.14,-39.96 182.87,-43.18 192,-46.5 201.86,-50.08 212.39,-54.46 221.92,-58.63"/>
<polygon fill="black" stroke="black" points="220.23,-61.71 230.79,-62.59 223.09,-55.32 220.23,-61.71"/>
</g>
<!-- 4818747792&#45;&gt;4818748368* -->
<g id="edge4" class="edge">
<title>4818747792&#45;&gt;4818748368*</title>
<path fill="none" stroke="black" d="M190.59,-18.5C199.58,-18.5 208.29,-18.5 216.23,-18.5"/>
<polygon fill="black" stroke="black" points="216.11,-22 226.11,-18.5 216.11,-15 216.11,-22"/>
</g>
<!-- 4818748368 -->
<g id="node7" class="node">
<title>4818748368</title>
<polygon fill="none" stroke="black" points="318,-0.5 318,-36.5 506.25,-36.5 506.25,-0.5 318,-0.5"/>
<text text-anchor="middle" x="329.38" y="-13.7" font-family="Times,serif" font-size="14.00">d</text>
<polyline fill="none" stroke="black" points="340.75,-1 340.75,-36.5"/>
<text text-anchor="middle" x="382.88" y="-13.7" font-family="Times,serif" font-size="14.00">data &#45;6.0000</text>
<polyline fill="none" stroke="black" points="425,-1 425,-36.5"/>
<text text-anchor="middle" x="465.62" y="-13.7" font-family="Times,serif" font-size="14.00">grad 1.0000</text>
</g>
<!-- 4818748368&#45;&gt;4818747744* -->
<g id="edge9" class="edge">
<title>4818748368&#45;&gt;4818747744*</title>
<path fill="none" stroke="black" d="M506.49,-34.75C515.27,-36.28 523.77,-37.76 531.51,-39.1"/>
<polygon fill="black" stroke="black" points="530.66,-42.51 541.11,-40.78 531.86,-35.61 530.66,-42.51"/>
</g>
<!-- 4818748368*&#45;&gt;4818748368 -->
<g id="edge3" class="edge">
<title>4818748368*&#45;&gt;4818748368</title>
<path fill="none" stroke="black" d="M282.31,-18.5C289.49,-18.5 297.72,-18.5 306.47,-18.5"/>
<polygon fill="black" stroke="black" points="306.29,-22 316.29,-18.5 306.29,-15 306.29,-22"/>
</g>
</g>
</svg>