<?xml version="1.0" encoding="UTF-8" standalone="no"?>
<!DOCTYPE svg PUBLIC "-//W3C//DTD SVG 1.1//EN"
 "http://www.w3.org/Graphics/SVG/1.1/DTD/svg11.dtd">
<!-- Generated by graphviz version 9.0.0 (20230911.1827)
 -->
<!-- Pages: 1 -->
<svg width="822pt" height="156pt"
 viewBox="0.00 0.00 821.50 156.00" xmlns="http://www.w3.org/2000/svg" xmlns:xlink="http://www.w3.org/1999/xlink">
<g id="graph0" class="graph" transform="scale(1 1) rotate(0) translate(4 152)">
<polygon fill="white" stroke="none" points="-4,4 -4,-152 817.5,-152 817.5,4 -4,4"/>
<!-- 4533931552 -->
<g id="node1" class="node">
<title>4533931552</title>
<polygon fill="none" stroke="black" points="2.62,-111.5 2.62,-147.5 104.38,-147.5 104.38,-111.5 2.62,-111.5"/>
<text text-anchor="middle" x="13.62" y="-124.7" font-family="Times,serif" font-size="14.00">a</text>
<polyline fill="none" stroke="black" points="24.62,-112 24.62,-147.5"/>
<text text-anchor="middle" x="64.5" y="-124.7" font-family="Times,serif" font-size="14.00">data 4.0000</text>
</g>
<!-- 4537750000* -->
<g id="node10" class="node">
<title>4537750000*</title>
<ellipse fill="none" stroke="black" cx="170" cy="-101.5" rx="27" ry="18"/>
<text text-anchor="middle" x="170" y="-96.45" font-family="Times,serif" font-size="14.00">*</text>
</g>
<!-- 4533931552&#45;&gt;4537750000* -->
<g id="edge6" class="edge">
<title>4533931552&#45;&gt;4537750000*</title>
<path fill="none" stroke="black" d="M104.72,-117.22C114.35,-114.86 124.26,-112.44 133.32,-110.23"/>
<polygon fill="black" stroke="black" points="133.9,-113.69 142.78,-107.91 132.24,-106.89 133.9,-113.69"/>
</g>
<!-- 4537750144 -->
<g id="node2" class="node">
<title>4537750144</title>
<polygon fill="none" stroke="black" points="705,-27.5 705,-63.5 813.5,-63.5 813.5,-27.5 705,-27.5"/>
<text text-anchor="middle" x="717.12" y="-40.7" font-family="Times,serif" font-size="14.00">L</text>
<polyline fill="none" stroke="black" points="729.25,-28 729.25,-63.5"/>
<text text-anchor="middle" x="771.38" y="-40.7" font-family="Times,serif" font-size="14.00">data &#45;8.0000</text>
</g>
<!-- 4537750144* -->
<g id="node3" class="node">
<title>4537750144*</title>
<ellipse fill="none" stroke="black" cx="642" cy="-45.5" rx="27" ry="18"/>
<text text-anchor="middle" x="642" y="-40.45" font-family="Times,serif" font-size="14.00">*</text>
</g>
<!-- 4537750144*&#45;&gt;4537750144 -->
<g id="edge1" class="edge">
<title>4537750144*&#45;&gt;4537750144</title>
<path fill="none" stroke="black" d="M669.44,-45.5C676.66,-45.5 684.81,-45.5 693.18,-45.5"/>
<polygon fill="black" stroke="black" points="693.14,-49 703.14,-45.5 693.14,-42 693.14,-49"/>
</g>
<!-- 4533929632 -->
<g id="node4" class="node">
<title>4533929632</title>
<polygon fill="none" stroke="black" points="239,-28.5 239,-64.5 340.75,-64.5 340.75,-28.5 239,-28.5"/>
<text text-anchor="middle" x="250" y="-41.7" font-family="Times,serif" font-size="14.00">c</text>
<polyline fill="none" stroke="black" points="261,-29 261,-64.5"/>
<text text-anchor="middle" x="300.88" y="-41.7" font-family="Times,serif" font-size="14.00">data 8.0000</text>
</g>
<!-- 4537751392+ -->
<g id="node7" class="node">
<title>4537751392+</title>
<ellipse fill="none" stroke="black" cx="409.75" cy="-73.5" rx="27" ry="18"/>
<text text-anchor="middle" x="409.75" y="-68.45" font-family="Times,serif" font-size="14.00">+</text>
</g>
<!-- 4533929632&#45;&gt;4537751392+ -->
<g id="edge4" class="edge">
<title>4533929632&#45;&gt;4537751392+</title>
<path fill="none" stroke="black" d="M341.21,-58.03C351.82,-60.46 362.82,-62.98 372.77,-65.26"/>
<polygon fill="black" stroke="black" points="371.9,-68.65 382.43,-67.47 373.46,-61.83 371.9,-68.65"/>
</g>
<!-- 4533930736 -->
<g id="node5" class="node">
<title>4533930736</title>
<polygon fill="none" stroke="black" points="0,-56.5 0,-92.5 107,-92.5 107,-56.5 0,-56.5"/>
<text text-anchor="middle" x="11.38" y="-69.7" font-family="Times,serif" font-size="14.00">b</text>
<polyline fill="none" stroke="black" points="22.75,-57 22.75,-92.5"/>
<text text-anchor="middle" x="64.88" y="-69.7" font-family="Times,serif" font-size="14.00">data &#45;3.0000</text>
</g>
<!-- 4533930736&#45;&gt;4537750000* -->
<g id="edge7" class="edge">
<title>4533930736&#45;&gt;4537750000*</title>
<path fill="none" stroke="black" d="M107.39,-86.97C116.08,-89.02 124.89,-91.1 133.04,-93.02"/>
<polygon fill="black" stroke="black" points="132.01,-96.37 142.55,-95.26 133.62,-89.56 132.01,-96.37"/>
</g>
<!-- 4537751392 -->
<g id="node6" class="node">
<title>4537751392</title>
<polygon fill="none" stroke="black" points="472.75,-55.5 472.75,-91.5 579,-91.5 579,-55.5 472.75,-55.5"/>
<text text-anchor="middle" x="483.75" y="-68.7" font-family="Times,serif" font-size="14.00">e</text>
<polyline fill="none" stroke="black" points="494.75,-56 494.75,-91.5"/>
<text text-anchor="middle" x="536.88" y="-68.7" font-family="Times,serif" font-size="14.00">data &#45;4.0000</text>
</g>
<!-- 4537751392&#45;&gt;4537750144* -->
<g id="edge9" class="edge">
<title>4537751392&#45;&gt;4537750144*</title>
<path fill="none" stroke="black" d="M579.26,-60.65C588.02,-58.5 596.93,-56.31 605.16,-54.29"/>
<polygon fill="black" stroke="black" points="605.89,-57.72 614.77,-51.94 604.23,-50.92 605.89,-57.72"/>
</g>
<!-- 4537751392+&#45;&gt;4537751392 -->
<g id="edge2" class="edge">
<title>4537751392+&#45;&gt;4537751392</title>
<path fill="none" stroke="black" d="M437.22,-73.5C444.46,-73.5 452.64,-73.5 461.01,-73.5"/>
<polygon fill="black" stroke="black" points="460.98,-77 470.98,-73.5 460.98,-70 460.98,-77"/>
</g>
<!-- 4537752016 -->
<g id="node8" class="node">
<title>4537752016</title>
<polygon fill="none" stroke="black" points="475.75,-0.5 475.75,-36.5 576,-36.5 576,-0.5 475.75,-0.5"/>
<text text-anchor="middle" x="486" y="-13.7" font-family="Times,serif" font-size="14.00">f</text>
<polyline fill="none" stroke="black" points="496.25,-1 496.25,-36.5"/>
<text text-anchor="middle" x="536.12" y="-13.7" font-family="Times,serif" font-size="14.00">data 2.0000</text>
</g>
<!-- 4537752016&#45;&gt;4537750144* -->
<g id="edge5" class="edge">
<title>4537752016&#45;&gt;4537750144*</title>
<path fill="none" stroke="black" d="M576.27,-30.19C585.93,-32.47 595.88,-34.83 605,-36.98"/>
<polygon fill="black" stroke="black" points="604.01,-40.35 614.55,-39.24 605.62,-33.53 604.01,-40.35"/>
</g>
<!-- 4537750000 -->
<g id="node9" class="node">
<title>4537750000</title>
<polygon fill="none" stroke="black" points="233,-83.5 233,-119.5 346.75,-119.5 346.75,-83.5 233,-83.5"/>
<text text-anchor="middle" x="244.38" y="-96.7" font-family="Times,serif" font-size="14.00">d</text>
<polyline fill="none" stroke="black" points="255.75,-84 255.75,-119.5"/>
<text text-anchor="middle" x="301.25" y="-96.7" font-family="Times,serif" font-size="14.00">data &#45;12.0000</text>
</g>
<!-- 4537750000&#45;&gt;4537751392+ -->
<g id="edge8" class="edge">
<title>4537750000&#45;&gt;4537751392+</title>
<path fill="none" stroke="black" d="M347.05,-88.16C355.84,-86.07 364.7,-83.96 372.87,-82.02"/>
<polygon fill="black" stroke="black" points="373.48,-85.48 382.4,-79.76 371.86,-78.67 373.48,-85.48"/>
</g>
<!-- 4537750000*&#45;&gt;4537750000 -->
<g id="edge3" class="edge">
<title>4537750000*&#45;&gt;4537750000</title>
<path fill="none" stroke="black" d="M197.45,-101.5C204.64,-101.5 212.76,-101.5 221.13,-101.5"/>
<polygon fill="black" stroke="black" points="221.11,-105 231.11,-101.5 221.11,-98 221.11,-105"/>
</g>
</g>
</svg>