<?xml version="1.0" encoding="UTF-8" standalone="no"?>
<!DOCTYPE svg PUBLIC "-//W3C//DTD SVG 1.1//EN"
 "http://www.w3.org/Graphics/SVG/1.1/DTD/svg11.dtd">
<!-- Generated by graphviz version 9.0.0 (20230911.1827)
 -->
<!-- Pages: 1 -->
<svg width="1147pt" height="154pt"
 viewBox="0.00 0.00 1146.50 154.00" xmlns="http://www.w3.org/2000/svg" xmlns:xlink="http://www.w3.org/1999/xlink">
<g id="graph0" class="graph" transform="scale(1 1) rotate(0) translate(4 150)">
<polygon fill="white" stroke="none" points="-4,4 -4,-150 1142.5,-150 1142.5,4 -4,4"/>
<!-- 4497071648 -->
<g id="node1" class="node">
<title>4497071648</title>
<polygon fill="none" stroke="black" points="314.25,-27.5 314.25,-63.5 509.25,-63.5 509.25,-27.5 314.25,-27.5"/>
<text text-anchor="middle" x="325.62" y="-40.7" font-family="Times,serif" font-size="14.00">d</text>
<polyline fill="none" stroke="black" points="337,-28 337,-63.5"/>
<text text-anchor="middle" x="382.5" y="-40.7" font-family="Times,serif" font-size="14.00">data &#45;12.0000</text>
<polyline fill="none" stroke="black" points="428,-28 428,-63.5"/>
<text text-anchor="middle" x="468.62" y="-40.7" font-family="Times,serif" font-size="14.00">grad 2.0000</text>
</g>
<!-- 4498333264+ -->
<g id="node4" class="node">
<title>4498333264+</title>
<ellipse fill="none" stroke="black" cx="572.25" cy="-72.5" rx="27" ry="18"/>
<text text-anchor="middle" x="572.25" y="-67.45" font-family="Times,serif" font-size="14.00">+</text>
</g>
<!-- 4497071648&#45;&gt;4498333264+ -->
<g id="edge7" class="edge">
<title>4497071648&#45;&gt;4498333264+</title>
<path fill="none" stroke="black" d="M509.52,-61.98C518.33,-63.49 526.85,-64.94 534.59,-66.25"/>
<polygon fill="black" stroke="black" points="533.74,-69.66 544.19,-67.89 534.92,-62.76 533.74,-69.66"/>
</g>
<!-- 4497071648* -->
<g id="node2" class="node">
<title>4497071648*</title>
<ellipse fill="none" stroke="black" cx="251.25" cy="-45.5" rx="27" ry="18"/>
<text text-anchor="middle" x="251.25" y="-40.45" font-family="Times,serif" font-size="14.00">*</text>
</g>
<!-- 4497071648*&#45;&gt;4497071648 -->
<g id="edge1" class="edge">
<title>4497071648*&#45;&gt;4497071648</title>
<path fill="none" stroke="black" d="M278.42,-45.5C285.59,-45.5 293.84,-45.5 302.63,-45.5"/>
<polygon fill="black" stroke="black" points="302.51,-49 312.51,-45.5 302.51,-42 302.51,-49"/>
</g>
<!-- 4498333264 -->
<g id="node3" class="node">
<title>4498333264</title>
<polygon fill="none" stroke="black" points="635.25,-54.5 635.25,-90.5 822.75,-90.5 822.75,-54.5 635.25,-54.5"/>
<text text-anchor="middle" x="646.25" y="-67.7" font-family="Times,serif" font-size="14.00">e</text>
<polyline fill="none" stroke="black" points="657.25,-55 657.25,-90.5"/>
<text text-anchor="middle" x="699.38" y="-67.7" font-family="Times,serif" font-size="14.00">data &#45;4.0000</text>
<polyline fill="none" stroke="black" points="741.5,-55 741.5,-90.5"/>
<text text-anchor="middle" x="782.12" y="-67.7" font-family="Times,serif" font-size="14.00">grad 2.0000</text>
</g>
<!-- 4497068912* -->
<g id="node10" class="node">
<title>4497068912*</title>
<ellipse fill="none" stroke="black" cx="885.75" cy="-99.5" rx="27" ry="18"/>
<text text-anchor="middle" x="885.75" y="-94.45" font-family="Times,serif" font-size="14.00">*</text>
</g>
<!-- 4498333264&#45;&gt;4497068912* -->
<g id="edge5" class="edge">
<title>4498333264&#45;&gt;4497068912*</title>
<path fill="none" stroke="black" d="M823.14,-88.75C831.9,-90.28 840.38,-91.76 848.09,-93.1"/>
<polygon fill="black" stroke="black" points="847.22,-96.51 857.68,-94.78 848.43,-89.61 847.22,-96.51"/>
</g>
<!-- 4498333264+&#45;&gt;4498333264 -->
<g id="edge2" class="edge">
<title>4498333264+&#45;&gt;4498333264</title>
<path fill="none" stroke="black" d="M599.5,-72.5C606.66,-72.5 614.87,-72.5 623.6,-72.5"/>
<polygon fill="black" stroke="black" points="623.39,-76 633.39,-72.5 623.39,-69 623.39,-76"/>
</g>
<!-- 4497265808 -->
<g id="node5" class="node">
<title>4497265808</title>
<polygon fill="none" stroke="black" points="0,-55.5 0,-91.5 188.25,-91.5 188.25,-55.5 0,-55.5"/>
<text text-anchor="middle" x="11.38" y="-68.7" font-family="Times,serif" font-size="14.00">b</text>
<polyline fill="none" stroke="black" points="22.75,-56 22.75,-91.5"/>
<text text-anchor="middle" x="64.88" y="-68.7" font-family="Times,serif" font-size="14.00">data &#45;3.0000</text>
<polyline fill="none" stroke="black" points="107,-56 107,-91.5"/>
<text text-anchor="middle" x="147.62" y="-68.7" font-family="Times,serif" font-size="14.00">grad 0.0000</text>
</g>
<!-- 4497265808&#45;&gt;4497071648* -->
<g id="edge9" class="edge">
<title>4497265808&#45;&gt;4497071648*</title>
<path fill="none" stroke="black" d="M188.49,-56.65C197.36,-55.05 205.93,-53.5 213.73,-52.09"/>
<polygon fill="black" stroke="black" points="214.2,-55.56 223.42,-50.34 212.95,-48.68 214.2,-55.56"/>
</g>
<!-- 4498330288 -->
<g id="node6" class="node">
<title>4498330288</title>
<polygon fill="none" stroke="black" points="636,-109.5 636,-145.5 822,-145.5 822,-109.5 636,-109.5"/>
<text text-anchor="middle" x="646.25" y="-122.7" font-family="Times,serif" font-size="14.00">f</text>
<polyline fill="none" stroke="black" points="656.5,-110 656.5,-145.5"/>
<text text-anchor="middle" x="696.38" y="-122.7" font-family="Times,serif" font-size="14.00">data 2.0000</text>
<polyline fill="none" stroke="black" points="736.25,-110 736.25,-145.5"/>
<text text-anchor="middle" x="779.12" y="-122.7" font-family="Times,serif" font-size="14.00">grad &#45;4.0000</text>
</g>
<!-- 4498330288&#45;&gt;4497068912* -->
<g id="edge6" class="edge">
<title>4498330288&#45;&gt;4497068912*</title>
<path fill="none" stroke="black" d="M822.25,-110.81C831.39,-109.16 840.23,-107.56 848.25,-106.1"/>
<polygon fill="black" stroke="black" points="848.65,-109.59 857.87,-104.36 847.4,-102.7 848.65,-109.59"/>
</g>
<!-- 4499478224 -->
<g id="node7" class="node">
<title>4499478224</title>
<polygon fill="none" stroke="black" points="320.25,-82.5 320.25,-118.5 503.25,-118.5 503.25,-82.5 320.25,-82.5"/>
<text text-anchor="middle" x="331.25" y="-95.7" font-family="Times,serif" font-size="14.00">c</text>
<polyline fill="none" stroke="black" points="342.25,-83 342.25,-118.5"/>
<text text-anchor="middle" x="382.12" y="-95.7" font-family="Times,serif" font-size="14.00">data 8.0000</text>
<polyline fill="none" stroke="black" points="422,-83 422,-118.5"/>
<text text-anchor="middle" x="462.62" y="-95.7" font-family="Times,serif" font-size="14.00">grad 2.0000</text>
</g>
<!-- 4499478224&#45;&gt;4498333264+ -->
<g id="edge8" class="edge">
<title>4499478224&#45;&gt;4498333264+</title>
<path fill="none" stroke="black" d="M503.57,-84.46C514.47,-82.53 525.06,-80.66 534.51,-78.99"/>
<polygon fill="black" stroke="black" points="535.08,-82.44 544.32,-77.26 533.86,-75.55 535.08,-82.44"/>
</g>
<!-- 4497264992 -->
<g id="node8" class="node">
<title>4497264992</title>
<polygon fill="none" stroke="black" points="2.62,-0.5 2.62,-36.5 185.62,-36.5 185.62,-0.5 2.62,-0.5"/>
<text text-anchor="middle" x="13.62" y="-13.7" font-family="Times,serif" font-size="14.00">a</text>
<polyline fill="none" stroke="black" points="24.62,-1 24.62,-36.5"/>
<text text-anchor="middle" x="64.5" y="-13.7" font-family="Times,serif" font-size="14.00">data 4.0000</text>
<polyline fill="none" stroke="black" points="104.38,-1 104.38,-36.5"/>
<text text-anchor="middle" x="145" y="-13.7" font-family="Times,serif" font-size="14.00">grad 0.0000</text>
</g>
<!-- 4497264992&#45;&gt;4497071648* -->
<g id="edge4" class="edge">
<title>4497264992&#45;&gt;4497071648*</title>
<path fill="none" stroke="black" d="M185.81,-34.28C195.45,-35.96 204.82,-37.59 213.29,-39.07"/>
<polygon fill="black" stroke="black" points="212.65,-42.51 223.1,-40.77 213.85,-35.61 212.65,-42.51"/>
</g>
<!-- 4497068912 -->
<g id="node9" class="node">
<title>4497068912</title>
<polygon fill="none" stroke="black" points="948.75,-81.5 948.75,-117.5 1138.5,-117.5 1138.5,-81.5 948.75,-81.5"/>
<text text-anchor="middle" x="960.88" y="-94.7" font-family="Times,serif" font-size="14.00">L</text>
<polyline fill="none" stroke="black" points="973,-82 973,-117.5"/>
<text text-anchor="middle" x="1015.12" y="-94.7" font-family="Times,serif" font-size="14.00">data &#45;8.0000</text>
<polyline fill="none" stroke="black" points="1057.25,-82 1057.25,-117.5"/>
<text text-anchor="middle" x="1097.88" y="-94.7" font-family="Times,serif" font-size="14.00">grad 1.0000</text>
</g>
<!-- 4497068912*&#45;&gt;4497068912 -->
<g id="edge3" class="edge">
<title>4497068912*&#45;&gt;4497068912</title>
<path fill="none" stroke="black" d="M913.19,-99.5C920.34,-99.5 928.53,-99.5 937.24,-99.5"/>
<polygon fill="black" stroke="black" points="937.01,-103 947.01,-99.5 937.01,-96 937.01,-103"/>
</g>
</g>
</svg>