<?xml version="1.0" encoding="UTF-8" standalone="no"?>
<!DOCTYPE svg PUBLIC "-//W3C//DTD SVG 1.1//EN"
 "http://www.w3.org/Graphics/SVG/1.1/DTD/svg11.dtd">
<!-- Generated by graphviz version 9.0.0 (20230911.1827)
 -->
<!-- Pages: 1 -->
<svg width="822pt" height="128pt"
 viewBox="0.00 0.00 821.50 128.00" xmlns="http://www.w3.org/2000/svg" xmlns:xlink="http://www.w3.org/1999/xlink">
<g id="graph0" class="graph" transform="scale(1 1) rotate(0) translate(4 124)">
<polygon fill="white" stroke="none" points="-4,4 -4,-124 817.5,-124 817.5,4 -4,4"/>
<!-- 4818307680 -->
<g id="node1" class="node">
<title>4818307680</title>
<polygon fill="none" stroke="black" points="239,-83.5 239,-119.5 340.75,-119.5 340.75,-83.5 239,-83.5"/>
<text text-anchor="middle" x="250" y="-96.7" font-family="Times,serif" font-size="14.00">c</text>
<polyline fill="none" stroke="black" points="261,-84 261,-119.5"/>
<text text-anchor="middle" x="300.88" y="-96.7" font-family="Times,serif" font-size="14.00">data 8.0000</text>
</g>
<!-- 4818096816+ -->
<g id="node4" class="node">
<title>4818096816+</title>
<ellipse fill="none" stroke="black" cx="409.75" cy="-73.5" rx="27" ry="18"/>
<text text-anchor="middle" x="409.75" y="-68.45" font-family="Times,serif" font-size="14.00">+</text>
</g>
<!-- 4818307680&#45;&gt;4818096816+ -->
<g id="edge7" class="edge">
<title>4818307680&#45;&gt;4818096816+</title>
<path fill="none" stroke="black" d="M341.21,-89.54C351.82,-87.02 362.82,-84.41 372.77,-82.05"/>
<polygon fill="black" stroke="black" points="373.51,-85.47 382.43,-79.75 371.89,-78.66 373.51,-85.47"/>
</g>
<!-- 4818097824 -->
<g id="node2" class="node">
<title>4818097824</title>
<polygon fill="none" stroke="black" points="475.75,-0.5 475.75,-36.5 576,-36.5 576,-0.5 475.75,-0.5"/>
<text text-anchor="middle" x="486" y="-13.7" font-family="Times,serif" font-size="14.00">f</text>
<polyline fill="none" stroke="black" points="496.25,-1 496.25,-36.5"/>
<text text-anchor="middle" x="536.12" y="-13.7" font-family="Times,serif" font-size="14.00">data 2.0000</text>
</g>
<!-- 4818097536* -->
<g id="node10" class="node">
<title>4818097536*</title>
<ellipse fill="none" stroke="black" cx="642" cy="-45.5" rx="27" ry="18"/>
<text text-anchor="middle" x="642" y="-40.45" font-family="Times,serif" font-size="14.00">*</text>
</g>
<!-- 4818097824&#45;&gt;4818097536* -->
<g id="edge5" class="edge">
<title>4818097824&#45;&gt;4818097536*</title>
<path fill="none" stroke="black" d="M576.27,-30.19C585.93,-32.47 595.88,-34.83 605,-36.98"/>
<polygon fill="black" stroke="black" points="604.01,-40.35 614.55,-39.24 605.62,-33.53 604.01,-40.35"/>
</g>
<!-- 4818096816 -->
<g id="node3" class="node">
<title>4818096816</title>
<polygon fill="none" stroke="black" points="472.75,-55.5 472.75,-91.5 579,-91.5 579,-55.5 472.75,-55.5"/>
<text text-anchor="middle" x="483.75" y="-68.7" font-family="Times,serif" font-size="14.00">e</text>
<polyline fill="none" stroke="black" points="494.75,-56 494.75,-91.5"/>
<text text-anchor="middle" x="536.88" y="-68.7" font-family="Times,serif" font-size="14.00">data &#45;4.0000</text>
</g>
<!-- 4818096816&#45;&gt;4818097536* -->
<g id="edge6" class="edge">
<title>4818096816&#45;&gt;4818097536*</title>
<path fill="none" stroke="black" d="M579.26,-60.65C588.02,-58.5 596.93,-56.31 605.16,-54.29"/>
<polygon fill="black" stroke="black" points="605.89,-57.72 614.77,-51.94 604.23,-50.92 605.89,-57.72"/>
</g>
<!-- 4818096816+&#45;&gt;4818096816 -->
<g id="edge1" class="edge">
<title>4818096816+&#45;&gt;4818096816</title>
<path fill="none" stroke="black" d="M437.22,-73.5C444.46,-73.5 452.64,-73.5 461.01,-73.5"/>
<polygon fill="black" stroke="black" points="460.98,-77 470.98,-73.5 460.98,-70 460.98,-77"/>
</g>
<!-- 4818306768 -->
<g id="node5" class="node">
<title>4818306768</title>
<polygon fill="none" stroke="black" points="2.62,-56.5 2.62,-92.5 104.38,-92.5 104.38,-56.5 2.62,-56.5"/>
<text text-anchor="middle" x="13.62" y="-69.7" font-family="Times,serif" font-size="14.00">a</text>
<polyline fill="none" stroke="black" points="24.62,-57 24.62,-92.5"/>
<text text-anchor="middle" x="64.5" y="-69.7" font-family="Times,serif" font-size="14.00">data 4.0000</text>
</g>
<!-- 4818099552* -->
<g id="node8" class="node">
<title>4818099552*</title>
<ellipse fill="none" stroke="black" cx="170" cy="-46.5" rx="27" ry="18"/>
<text text-anchor="middle" x="170" y="-41.45" font-family="Times,serif" font-size="14.00">*</text>
</g>
<!-- 4818306768&#45;&gt;4818099552* -->
<g id="edge4" class="edge">
<title>4818306768&#45;&gt;4818099552*</title>
<path fill="none" stroke="black" d="M104.72,-62.22C114.35,-59.86 124.26,-57.44 133.32,-55.23"/>
<polygon fill="black" stroke="black" points="133.9,-58.69 142.78,-52.91 132.24,-51.89 133.9,-58.69"/>
</g>
<!-- 4818308832 -->
<g id="node6" class="node">
<title>4818308832</title>
<polygon fill="none" stroke="black" points="0,-1.5 0,-37.5 107,-37.5 107,-1.5 0,-1.5"/>
<text text-anchor="middle" x="11.38" y="-14.7" font-family="Times,serif" font-size="14.00">b</text>
<polyline fill="none" stroke="black" points="22.75,-2 22.75,-37.5"/>
<text text-anchor="middle" x="64.88" y="-14.7" font-family="Times,serif" font-size="14.00">data &#45;3.0000</text>
</g>
<!-- 4818308832&#45;&gt;4818099552* -->
<g id="edge9" class="edge">
<title>4818308832&#45;&gt;4818099552*</title>
<path fill="none" stroke="black" d="M107.39,-31.97C116.08,-34.02 124.89,-36.1 133.04,-38.02"/>
<polygon fill="black" stroke="black" points="132.01,-41.37 142.55,-40.26 133.62,-34.56 132.01,-41.37"/>
</g>
<!-- 4818099552 -->
<g id="node7" class="node">
<title>4818099552</title>
<polygon fill="none" stroke="black" points="233,-28.5 233,-64.5 346.75,-64.5 346.75,-28.5 233,-28.5"/>
<text text-anchor="middle" x="244.38" y="-41.7" font-family="Times,serif" font-size="14.00">d</text>
<polyline fill="none" stroke="black" points="255.75,-29 255.75,-64.5"/>
<text text-anchor="middle" x="301.25" y="-41.7" font-family="Times,serif" font-size="14.00">data &#45;12.0000</text>
</g>
<!-- 4818099552&#45;&gt;4818096816+ -->
<g id="edge8" class="edge">
<title>4818099552&#45;&gt;4818096816+</title>
<path fill="none" stroke="black" d="M347.05,-59.37C355.84,-61.38 364.7,-63.41 372.87,-65.28"/>
<polygon fill="black" stroke="black" points="371.86,-68.64 382.39,-67.46 373.43,-61.82 371.86,-68.64"/>
</g>
<!-- 4818099552*&#45;&gt;4818099552 -->
<g id="edge2" class="edge">
<title>4818099552*&#45;&gt;4818099552</title>
<path fill="none" stroke="black" d="M197.45,-46.5C204.64,-46.5 212.76,-46.5 221.13,-46.5"/>
<polygon fill="black" stroke="black" points="221.11,-50 231.11,-46.5 221.11,-43 221.11,-50"/>
</g>
<!-- 4818097536 -->
<g id="node9" class="node">
<title>4818097536</title>
<polygon fill="none" stroke="black" points="705,-27.5 705,-63.5 813.5,-63.5 813.5,-27.5 705,-27.5"/>
<text text-anchor="middle" x="717.12" y="-40.7" font-family="Times,serif" font-size="14.00">L</text>
<polyline fill="none" stroke="black" points="729.25,-28 729.25,-63.5"/>
<text text-anchor="middle" x="771.38" y="-40.7" font-family="Times,serif" font-size="14.00">data &#45;8.0000</text>
</g>
<!-- 4818097536*&#45;&gt;4818097536 -->
<g id="edge3" class="edge">
<title>4818097536*&#45;&gt;4818097536</title>
<path fill="none" stroke="black" d="M669.44,-45.5C676.66,-45.5 684.81,-45.5 693.18,-45.5"/>
<polygon fill="black" stroke="black" points="693.14,-49 703.14,-45.5 693.14,-42 693.14,-49"/>
</g>
</g>
</svg>