<?xml version="1.0" encoding="UTF-8" standalone="no"?>
<!DOCTYPE svg PUBLIC "-//W3C//DTD SVG 1.1//EN"
 "http://www.w3.org/Graphics/SVG/1.1/DTD/svg11.dtd">
<!-- Generated by graphviz version 9.0.0 (20230911.1827)
 -->
<!-- Pages: 1 -->
<svg width="1147pt" height="156pt"
 viewBox="0.00 0.00 1146.50 156.00" xmlns="http://www.w3.org/2000/svg" xmlns:xlink="http://www.w3.org/1999/xlink">
<g id="graph0" class="graph" transform="scale(1 1) rotate(0) translate(4 152)">
<polygon fill="white" stroke="none" points="-4,4 -4,-152 1142.5,-152 1142.5,4 -4,4"/>
<!-- 4820099136 -->
<g id="node1" class="node">
<title>4820099136</title>
<polygon fill="none" stroke="black" points="0,-111.5 0,-147.5 188.25,-147.5 188.25,-111.5 0,-111.5"/>
<text text-anchor="middle" x="11.38" y="-124.7" font-family="Times,serif" font-size="14.00">b</text>
<polyline fill="none" stroke="black" points="22.75,-112 22.75,-147.5"/>
<text text-anchor="middle" x="64.88" y="-124.7" font-family="Times,serif" font-size="14.00">data &#45;3.0000</text>
<polyline fill="none" stroke="black" points="107,-112 107,-147.5"/>
<text text-anchor="middle" x="147.62" y="-124.7" font-family="Times,serif" font-size="14.00">grad 0.0000</text>
</g>
<!-- 4820040288* -->
<g id="node5" class="node">
<title>4820040288*</title>
<ellipse fill="none" stroke="black" cx="251.25" cy="-101.5" rx="27" ry="18"/>
<text text-anchor="middle" x="251.25" y="-96.45" font-family="Times,serif" font-size="14.00">*</text>
</g>
<!-- 4820099136&#45;&gt;4820040288* -->
<g id="edge9" class="edge">
<title>4820099136&#45;&gt;4820040288*</title>
<path fill="none" stroke="black" d="M188.49,-112.65C197.36,-111.05 205.93,-109.5 213.73,-108.09"/>
<polygon fill="black" stroke="black" points="214.2,-111.56 223.42,-106.34 212.95,-104.68 214.2,-111.56"/>
</g>
<!-- 4819914320 -->
<g id="node2" class="node">
<title>4819914320</title>
<polygon fill="none" stroke="black" points="635.25,-55.5 635.25,-91.5 822.75,-91.5 822.75,-55.5 635.25,-55.5"/>
<text text-anchor="middle" x="646.25" y="-68.7" font-family="Times,serif" font-size="14.00">e</text>
<polyline fill="none" stroke="black" points="657.25,-56 657.25,-91.5"/>
<text text-anchor="middle" x="699.38" y="-68.7" font-family="Times,serif" font-size="14.00">data &#45;4.0000</text>
<polyline fill="none" stroke="black" points="741.5,-56 741.5,-91.5"/>
<text text-anchor="middle" x="782.12" y="-68.7" font-family="Times,serif" font-size="14.00">grad 0.0000</text>
</g>
<!-- 4820037936* -->
<g id="node9" class="node">
<title>4820037936*</title>
<ellipse fill="none" stroke="black" cx="885.75" cy="-45.5" rx="27" ry="18"/>
<text text-anchor="middle" x="885.75" y="-40.45" font-family="Times,serif" font-size="14.00">*</text>
</g>
<!-- 4819914320&#45;&gt;4820037936* -->
<g id="edge6" class="edge">
<title>4819914320&#45;&gt;4820037936*</title>
<path fill="none" stroke="black" d="M823.14,-56.65C831.9,-55.06 840.38,-53.53 848.09,-52.13"/>
<polygon fill="black" stroke="black" points="848.46,-55.62 857.68,-50.4 847.21,-48.73 848.46,-55.62"/>
</g>
<!-- 4819914320+ -->
<g id="node3" class="node">
<title>4819914320+</title>
<ellipse fill="none" stroke="black" cx="572.25" cy="-73.5" rx="27" ry="18"/>
<text text-anchor="middle" x="572.25" y="-68.45" font-family="Times,serif" font-size="14.00">+</text>
</g>
<!-- 4819914320+&#45;&gt;4819914320 -->
<g id="edge1" class="edge">
<title>4819914320+&#45;&gt;4819914320</title>
<path fill="none" stroke="black" d="M599.5,-73.5C606.66,-73.5 614.87,-73.5 623.6,-73.5"/>
<polygon fill="black" stroke="black" points="623.39,-77 633.39,-73.5 623.39,-70 623.39,-77"/>
</g>
<!-- 4820040288 -->
<g id="node4" class="node">
<title>4820040288</title>
<polygon fill="none" stroke="black" points="314.25,-83.5 314.25,-119.5 509.25,-119.5 509.25,-83.5 314.25,-83.5"/>
<text text-anchor="middle" x="325.62" y="-96.7" font-family="Times,serif" font-size="14.00">d</text>
<polyline fill="none" stroke="black" points="337,-84 337,-119.5"/>
<text text-anchor="middle" x="382.5" y="-96.7" font-family="Times,serif" font-size="14.00">data &#45;12.0000</text>
<polyline fill="none" stroke="black" points="428,-84 428,-119.5"/>
<text text-anchor="middle" x="468.62" y="-96.7" font-family="Times,serif" font-size="14.00">grad 0.0000</text>
</g>
<!-- 4820040288&#45;&gt;4819914320+ -->
<g id="edge4" class="edge">
<title>4820040288&#45;&gt;4819914320+</title>
<path fill="none" stroke="black" d="M509.52,-84.41C518.33,-82.85 526.85,-81.34 534.59,-79.98"/>
<polygon fill="black" stroke="black" points="534.95,-83.47 544.19,-78.28 533.74,-76.57 534.95,-83.47"/>
</g>
<!-- 4820040288*&#45;&gt;4820040288 -->
<g id="edge2" class="edge">
<title>4820040288*&#45;&gt;4820040288</title>
<path fill="none" stroke="black" d="M278.42,-101.5C285.59,-101.5 293.84,-101.5 302.63,-101.5"/>
<polygon fill="black" stroke="black" points="302.51,-105 312.51,-101.5 302.51,-98 302.51,-105"/>
</g>
<!-- 4820101200 -->
<g id="node6" class="node">
<title>4820101200</title>
<polygon fill="none" stroke="black" points="320.25,-28.5 320.25,-64.5 503.25,-64.5 503.25,-28.5 320.25,-28.5"/>
<text text-anchor="middle" x="331.25" y="-41.7" font-family="Times,serif" font-size="14.00">c</text>
<polyline fill="none" stroke="black" points="342.25,-29 342.25,-64.5"/>
<text text-anchor="middle" x="382.12" y="-41.7" font-family="Times,serif" font-size="14.00">data 8.0000</text>
<polyline fill="none" stroke="black" points="422,-29 422,-64.5"/>
<text text-anchor="middle" x="462.62" y="-41.7" font-family="Times,serif" font-size="14.00">grad 0.0000</text>
</g>
<!-- 4820101200&#45;&gt;4819914320+ -->
<g id="edge5" class="edge">
<title>4820101200&#45;&gt;4819914320+</title>
<path fill="none" stroke="black" d="M503.57,-61.97C514.47,-63.83 525.06,-65.63 534.51,-67.24"/>
<polygon fill="black" stroke="black" points="533.87,-70.68 544.31,-68.91 535.04,-63.78 533.87,-70.68"/>
</g>
<!-- 4820102880 -->
<g id="node7" class="node">
<title>4820102880</title>
<polygon fill="none" stroke="black" points="2.62,-56.5 2.62,-92.5 185.62,-92.5 185.62,-56.5 2.62,-56.5"/>
<text text-anchor="middle" x="13.62" y="-69.7" font-family="Times,serif" font-size="14.00">a</text>
<polyline fill="none" stroke="black" points="24.62,-57 24.62,-92.5"/>
<text text-anchor="middle" x="64.5" y="-69.7" font-family="Times,serif" font-size="14.00">data 4.0000</text>
<polyline fill="none" stroke="black" points="104.38,-57 104.38,-92.5"/>
<text text-anchor="middle" x="145" y="-69.7" font-family="Times,serif" font-size="14.00">grad 0.0000</text>
</g>
<!-- 4820102880&#45;&gt;4820040288* -->
<g id="edge7" class="edge">
<title>4820102880&#45;&gt;4820040288*</title>
<path fill="none" stroke="black" d="M185.81,-90.28C195.45,-91.96 204.82,-93.59 213.29,-95.07"/>
<polygon fill="black" stroke="black" points="212.65,-98.51 223.1,-96.77 213.85,-91.61 212.65,-98.51"/>
</g>
<!-- 4820037936 -->
<g id="node8" class="node">
<title>4820037936</title>
<polygon fill="none" stroke="black" points="948.75,-27.5 948.75,-63.5 1138.5,-63.5 1138.5,-27.5 948.75,-27.5"/>
<text text-anchor="middle" x="960.88" y="-40.7" font-family="Times,serif" font-size="14.00">L</text>
<polyline fill="none" stroke="black" points="973,-28 973,-63.5"/>
<text text-anchor="middle" x="1015.12" y="-40.7" font-family="Times,serif" font-size="14.00">data &#45;8.0000</text>
<polyline fill="none" stroke="black" points="1057.25,-28 1057.25,-63.5"/>
<text text-anchor="middle" x="1097.88" y="-40.7" font-family="Times,serif" font-size="14.00">grad 0.0000</text>
</g>
<!-- 4820037936*&#45;&gt;4820037936 -->
<g id="edge3" class="edge">
<title>4820037936*&#45;&gt;4820037936</title>
<path fill="none" stroke="black" d="M913.19,-45.5C920.34,-45.5 928.53,-45.5 937.24,-45.5"/>
<polygon fill="black" stroke="black" points="937.01,-49 947.01,-45.5 937.01,-42 937.01,-49"/>
</g>
<!-- 4819913120 -->
<g id="node10" class="node">
<title>4819913120</title>
<polygon fill="none" stroke="black" points="638.25,-0.5 638.25,-36.5 819.75,-36.5 819.75,-0.5 638.25,-0.5"/>
<text text-anchor="middle" x="648.5" y="-13.7" font-family="Times,serif" font-size="14.00">f</text>
<polyline fill="none" stroke="black" points="658.75,-1 658.75,-36.5"/>
<text text-anchor="middle" x="698.62" y="-13.7" font-family="Times,serif" font-size="14.00">data 2.0000</text>
<polyline fill="none" stroke="black" points="738.5,-1 738.5,-36.5"/>
<text text-anchor="middle" x="779.12" y="-13.7" font-family="Times,serif" font-size="14.00">grad 0.0000</text>
</g>
<!-- 4819913120&#45;&gt;4820037936* -->
<g id="edge8" class="edge">
<title>4819913120&#45;&gt;4820037936*</title>
<path fill="none" stroke="black" d="M820.02,-34.21C829.89,-35.93 839.48,-37.6 848.13,-39.11"/>
<polygon fill="black" stroke="black" points="847.32,-42.52 857.77,-40.79 848.52,-35.63 847.32,-42.52"/>
</g>
</g>
</svg>