<?xml version="1.0" encoding="UTF-8" standalone="no"?>
<!DOCTYPE svg PUBLIC "-//W3C//DTD SVG 1.1//EN"
 "http://www.w3.org/Graphics/SVG/1.1/DTD/svg11.dtd">
<!-- Generated by graphviz version 9.0.0 (20230911.1827)
 -->
<!-- Pages: 1 -->
<svg width="1147pt" height="128pt"
 viewBox="0.00 0.00 1146.50 128.00" xmlns="http://www.w3.org/2000/svg" xmlns:xlink="http://www.w3.org/1999/xlink">
<g id="graph0" class="graph" transform="scale(1 1) rotate(0) translate(4 124)">
<polygon fill="white" stroke="none" points="-4,4 -4,-124 1142.5,-124 1142.5,4 -4,4"/>
<!-- 4837057728 -->
<g id="node1" class="node">
<title>4837057728</title>
<polygon fill="none" stroke="black" points="948.75,-54.5 948.75,-90.5 1138.5,-90.5 1138.5,-54.5 948.75,-54.5"/>
<text text-anchor="middle" x="960.88" y="-67.7" font-family="Times,serif" font-size="14.00">L</text>
<polyline fill="none" stroke="black" points="973,-55 973,-90.5"/>
<text text-anchor="middle" x="1015.12" y="-67.7" font-family="Times,serif" font-size="14.00">data &#45;8.0000</text>
<polyline fill="none" stroke="black" points="1057.25,-55 1057.25,-90.5"/>
<text text-anchor="middle" x="1097.88" y="-67.7" font-family="Times,serif" font-size="14.00">grad 1.0000</text>
</g>
<!-- 4837057728* -->
<g id="node2" class="node">
<title>4837057728*</title>
<ellipse fill="none" stroke="black" cx="885.75" cy="-72.5" rx="27" ry="18"/>
<text text-anchor="middle" x="885.75" y="-67.45" font-family="Times,serif" font-size="14.00">*</text>
</g>
<!-- 4837057728*&#45;&gt;4837057728 -->
<g id="edge1" class="edge">
<title>4837057728*&#45;&gt;4837057728</title>
<path fill="none" stroke="black" d="M913.19,-72.5C920.34,-72.5 928.53,-72.5 937.24,-72.5"/>
<polygon fill="black" stroke="black" points="937.01,-76 947.01,-72.5 937.01,-69 937.01,-76"/>
</g>
<!-- 4837056816 -->
<g id="node3" class="node">
<title>4837056816</title>
<polygon fill="none" stroke="black" points="314.25,-55.5 314.25,-91.5 509.25,-91.5 509.25,-55.5 314.25,-55.5"/>
<text text-anchor="middle" x="325.62" y="-68.7" font-family="Times,serif" font-size="14.00">d</text>
<polyline fill="none" stroke="black" points="337,-56 337,-91.5"/>
<text text-anchor="middle" x="382.5" y="-68.7" font-family="Times,serif" font-size="14.00">data &#45;12.0000</text>
<polyline fill="none" stroke="black" points="428,-56 428,-91.5"/>
<text text-anchor="middle" x="468.62" y="-68.7" font-family="Times,serif" font-size="14.00">grad 0.0000</text>
</g>
<!-- 4837056912+ -->
<g id="node10" class="node">
<title>4837056912+</title>
<ellipse fill="none" stroke="black" cx="572.25" cy="-45.5" rx="27" ry="18"/>
<text text-anchor="middle" x="572.25" y="-40.45" font-family="Times,serif" font-size="14.00">+</text>
</g>
<!-- 4837056816&#45;&gt;4837056912+ -->
<g id="edge7" class="edge">
<title>4837056816&#45;&gt;4837056912+</title>
<path fill="none" stroke="black" d="M509.52,-56.41C518.33,-54.85 526.85,-53.34 534.59,-51.98"/>
<polygon fill="black" stroke="black" points="534.95,-55.47 544.19,-50.28 533.74,-48.57 534.95,-55.47"/>
</g>
<!-- 4837056816* -->
<g id="node4" class="node">
<title>4837056816*</title>
<ellipse fill="none" stroke="black" cx="251.25" cy="-73.5" rx="27" ry="18"/>
<text text-anchor="middle" x="251.25" y="-68.45" font-family="Times,serif" font-size="14.00">*</text>
</g>
<!-- 4837056816*&#45;&gt;4837056816 -->
<g id="edge2" class="edge">
<title>4837056816*&#45;&gt;4837056816</title>
<path fill="none" stroke="black" d="M278.42,-73.5C285.59,-73.5 293.84,-73.5 302.63,-73.5"/>
<polygon fill="black" stroke="black" points="302.51,-77 312.51,-73.5 302.51,-70 302.51,-77"/>
</g>
<!-- 4837058352 -->
<g id="node5" class="node">
<title>4837058352</title>
<polygon fill="none" stroke="black" points="320.25,-0.5 320.25,-36.5 503.25,-36.5 503.25,-0.5 320.25,-0.5"/>
<text text-anchor="middle" x="331.25" y="-13.7" font-family="Times,serif" font-size="14.00">c</text>
<polyline fill="none" stroke="black" points="342.25,-1 342.25,-36.5"/>
<text text-anchor="middle" x="382.12" y="-13.7" font-family="Times,serif" font-size="14.00">data 8.0000</text>
<polyline fill="none" stroke="black" points="422,-1 422,-36.5"/>
<text text-anchor="middle" x="462.62" y="-13.7" font-family="Times,serif" font-size="14.00">grad 0.0000</text>
</g>
<!-- 4837058352&#45;&gt;4837056912+ -->
<g id="edge5" class="edge">
<title>4837058352&#45;&gt;4837056912+</title>
<path fill="none" stroke="black" d="M503.57,-33.97C514.47,-35.83 525.06,-37.63 534.51,-39.24"/>
<polygon fill="black" stroke="black" points="533.87,-42.68 544.31,-40.91 535.04,-35.78 533.87,-42.68"/>
</g>
<!-- 4837059408 -->
<g id="node6" class="node">
<title>4837059408</title>
<polygon fill="none" stroke="black" points="2.62,-83.5 2.62,-119.5 185.62,-119.5 185.62,-83.5 2.62,-83.5"/>
<text text-anchor="middle" x="13.62" y="-96.7" font-family="Times,serif" font-size="14.00">a</text>
<polyline fill="none" stroke="black" points="24.62,-84 24.62,-119.5"/>
<text text-anchor="middle" x="64.5" y="-96.7" font-family="Times,serif" font-size="14.00">data 4.0000</text>
<polyline fill="none" stroke="black" points="104.38,-84 104.38,-119.5"/>
<text text-anchor="middle" x="145" y="-96.7" font-family="Times,serif" font-size="14.00">grad 0.0000</text>
</g>
<!-- 4837059408&#45;&gt;4837056816* -->
<g id="edge6" class="edge">
<title>4837059408&#45;&gt;4837056816*</title>
<path fill="none" stroke="black" d="M185.81,-85.13C195.66,-83.35 205.21,-81.63 213.82,-80.08"/>
<polygon fill="black" stroke="black" points="214.19,-83.57 223.41,-78.34 212.95,-76.68 214.19,-83.57"/>
</g>
<!-- 4837060416 -->
<g id="node7" class="node">
<title>4837060416</title>
<polygon fill="none" stroke="black" points="636,-82.5 636,-118.5 822,-118.5 822,-82.5 636,-82.5"/>
<text text-anchor="middle" x="646.25" y="-95.7" font-family="Times,serif" font-size="14.00">f</text>
<polyline fill="none" stroke="black" points="656.5,-83 656.5,-118.5"/>
<text text-anchor="middle" x="696.38" y="-95.7" font-family="Times,serif" font-size="14.00">data 2.0000</text>
<polyline fill="none" stroke="black" points="736.25,-83 736.25,-118.5"/>
<text text-anchor="middle" x="779.12" y="-95.7" font-family="Times,serif" font-size="14.00">grad &#45;4.0000</text>
</g>
<!-- 4837060416&#45;&gt;4837057728* -->
<g id="edge8" class="edge">
<title>4837060416&#45;&gt;4837057728*</title>
<path fill="none" stroke="black" d="M822.25,-83.81C831.39,-82.16 840.23,-80.56 848.25,-79.1"/>
<polygon fill="black" stroke="black" points="848.65,-82.59 857.87,-77.36 847.4,-75.7 848.65,-82.59"/>
</g>
<!-- 4837057392 -->
<g id="node8" class="node">
<title>4837057392</title>
<polygon fill="none" stroke="black" points="0,-28.5 0,-64.5 188.25,-64.5 188.25,-28.5 0,-28.5"/>
<text text-anchor="middle" x="11.38" y="-41.7" font-family="Times,serif" font-size="14.00">b</text>
<polyline fill="none" stroke="black" points="22.75,-29 22.75,-64.5"/>
<text text-anchor="middle" x="64.88" y="-41.7" font-family="Times,serif" font-size="14.00">data &#45;3.0000</text>
<polyline fill="none" stroke="black" points="107,-29 107,-64.5"/>
<text text-anchor="middle" x="147.62" y="-41.7" font-family="Times,serif" font-size="14.00">grad 0.0000</text>
</g>
<!-- 4837057392&#45;&gt;4837056816* -->
<g id="edge4" class="edge">
<title>4837057392&#45;&gt;4837056816*</title>
<path fill="none" stroke="black" d="M188.49,-62.75C197.27,-64.28 205.77,-65.76 213.51,-67.1"/>
<polygon fill="black" stroke="black" points="212.66,-70.51 223.11,-68.78 213.86,-63.61 212.66,-70.51"/>
</g>
<!-- 4837056912 -->
<g id="node9" class="node">
<title>4837056912</title>
<polygon fill="none" stroke="black" points="635.25,-27.5 635.25,-63.5 822.75,-63.5 822.75,-27.5 635.25,-27.5"/>
<text text-anchor="middle" x="646.25" y="-40.7" font-family="Times,serif" font-size="14.00">e</text>
<polyline fill="none" stroke="black" points="657.25,-28 657.25,-63.5"/>
<text text-anchor="middle" x="699.38" y="-40.7" font-family="Times,serif" font-size="14.00">data &#45;4.0000</text>
<polyline fill="none" stroke="black" points="741.5,-28 741.5,-63.5"/>
<text text-anchor="middle" x="782.12" y="-40.7" font-family="Times,serif" font-size="14.00">grad 2.0000</text>
</g>
<!-- 4837056912&#45;&gt;4837057728* -->
<g id="edge9" class="edge">
<title>4837056912&#45;&gt;4837057728*</title>
<path fill="none" stroke="black" d="M823.14,-61.75C831.9,-63.28 840.38,-64.76 848.09,-66.1"/>
<polygon fill="black" stroke="black" points="847.22,-69.51 857.68,-67.78 848.43,-62.61 847.22,-69.51"/>
</g>
<!-- 4837056912+&#45;&gt;4837056912 -->
<g id="edge3" class="edge">
<title>4837056912+&#45;&gt;4837056912</title>
<path fill="none" stroke="black" d="M599.5,-45.5C606.66,-45.5 614.87,-45.5 623.6,-45.5"/>
<polygon fill="black" stroke="black" points="623.39,-49 633.39,-45.5 623.39,-42 623.39,-49"/>
</g>
</g>
</svg>