<?xml version="1.0" encoding="UTF-8" standalone="no"?>
<!DOCTYPE svg PUBLIC "-//W3C//DTD SVG 1.1//EN"
 "http://www.w3.org/Graphics/SVG/1.1/DTD/svg11.dtd">
<!-- Generated by graphviz version 9.0.0 (20230911.1827)
 -->
<!-- Pages: 1 -->
<svg width="1566pt" height="210pt"
 viewBox="0.00 0.00 1565.88 210.00" xmlns="http://www.w3.org/2000/svg" xmlns:xlink="http://www.w3.org/1999/xlink">
<g id="graph0" class="graph" transform="scale(1 1) rotate(0) translate(4 206)">
<polygon fill="white" stroke="none" points="-4,4 -4,-206 1561.88,-206 1561.88,4 -4,4"/>
<!-- 4834393200 -->
<g id="node1" class="node">
<title>4834393200</title>
<polygon fill="none" stroke="black" points="0,-165.5 0,-201.5 198,-201.5 198,-165.5 0,-165.5"/>
<text text-anchor="middle" x="16.25" y="-178.7" font-family="Times,serif" font-size="14.00">w1</text>
<polyline fill="none" stroke="black" points="32.5,-166 32.5,-201.5"/>
<text text-anchor="middle" x="74.62" y="-178.7" font-family="Times,serif" font-size="14.00">data &#45;3.0000</text>
<polyline fill="none" stroke="black" points="116.75,-166 116.75,-201.5"/>
<text text-anchor="middle" x="157.38" y="-178.7" font-family="Times,serif" font-size="14.00">grad 0.0000</text>
</g>
<!-- 4834392336* -->
<g id="node9" class="node">
<title>4834392336*</title>
<ellipse fill="none" stroke="black" cx="261" cy="-128.5" rx="27" ry="18"/>
<text text-anchor="middle" x="261" y="-123.45" font-family="Times,serif" font-size="14.00">*</text>
</g>
<!-- 4834393200&#45;&gt;4834392336* -->
<g id="edge9" class="edge">
<title>4834393200&#45;&gt;4834392336*</title>
<path fill="none" stroke="black" d="M172.12,-165.01C180.9,-162.35 189.7,-159.5 198,-156.5 208.09,-152.86 218.82,-148.27 228.47,-143.88"/>
<polygon fill="black" stroke="black" points="229.86,-147.09 237.45,-139.69 226.9,-140.75 229.86,-147.09"/>
</g>
<!-- 4834290800 -->
<g id="node2" class="node">
<title>4834290800</title>
<polygon fill="none" stroke="black" points="326.25,-55.5 326.25,-91.5 540,-91.5 540,-55.5 326.25,-55.5"/>
<text text-anchor="middle" x="352.62" y="-68.7" font-family="Times,serif" font-size="14.00">x2*w2</text>
<polyline fill="none" stroke="black" points="379,-56 379,-91.5"/>
<text text-anchor="middle" x="418.88" y="-68.7" font-family="Times,serif" font-size="14.00">data 0.0000</text>
<polyline fill="none" stroke="black" points="458.75,-56 458.75,-91.5"/>
<text text-anchor="middle" x="499.38" y="-68.7" font-family="Times,serif" font-size="14.00">grad 0.0000</text>
</g>
<!-- 4834289360+ -->
<g id="node7" class="node">
<title>4834289360+</title>
<ellipse fill="none" stroke="black" cx="605.25" cy="-100.5" rx="27" ry="18"/>
<text text-anchor="middle" x="605.25" y="-95.45" font-family="Times,serif" font-size="14.00">+</text>
</g>
<!-- 4834290800&#45;&gt;4834289360+ -->
<g id="edge11" class="edge">
<title>4834290800&#45;&gt;4834289360+</title>
<path fill="none" stroke="black" d="M540.42,-90.37C549.89,-91.87 559,-93.32 567.21,-94.62"/>
<polygon fill="black" stroke="black" points="566.63,-98.07 577.05,-96.18 567.72,-91.16 566.63,-98.07"/>
</g>
<!-- 4834290800* -->
<g id="node3" class="node">
<title>4834290800*</title>
<ellipse fill="none" stroke="black" cx="261" cy="-73.5" rx="27" ry="18"/>
<text text-anchor="middle" x="261" y="-68.45" font-family="Times,serif" font-size="14.00">*</text>
</g>
<!-- 4834290800*&#45;&gt;4834290800 -->
<g id="edge1" class="edge">
<title>4834290800*&#45;&gt;4834290800</title>
<path fill="none" stroke="black" d="M288.21,-73.5C296,-73.5 305.08,-73.5 314.82,-73.5"/>
<polygon fill="black" stroke="black" points="314.55,-77 324.55,-73.5 314.55,-70 314.55,-77"/>
</g>
<!-- 4834290320 -->
<g id="node4" class="node">
<title>4834290320</title>
<polygon fill="none" stroke="black" points="1374.13,-54.5 1374.13,-90.5 1557.88,-90.5 1557.88,-54.5 1374.13,-54.5"/>
<text text-anchor="middle" x="1385.5" y="-67.7" font-family="Times,serif" font-size="14.00">o</text>
<polyline fill="none" stroke="black" points="1396.88,-55 1396.88,-90.5"/>
<text text-anchor="middle" x="1436.75" y="-67.7" font-family="Times,serif" font-size="14.00">data 0.8814</text>
<polyline fill="none" stroke="black" points="1476.63,-55 1476.63,-90.5"/>
<text text-anchor="middle" x="1517.25" y="-67.7" font-family="Times,serif" font-size="14.00">grad 0.0000</text>
</g>
<!-- 4834290320ReLU -->
<g id="node5" class="node">
<title>4834290320ReLU</title>
<ellipse fill="none" stroke="black" cx="1304.69" cy="-72.5" rx="33.44" ry="18"/>
<text text-anchor="middle" x="1304.69" y="-67.45" font-family="Times,serif" font-size="14.00">ReLU</text>
</g>
<!-- 4834290320ReLU&#45;&gt;4834290320 -->
<g id="edge2" class="edge">
<title>4834290320ReLU&#45;&gt;4834290320</title>
<path fill="none" stroke="black" d="M1338.31,-72.5C1345.65,-72.5 1353.83,-72.5 1362.39,-72.5"/>
<polygon fill="black" stroke="black" points="1362.31,-76 1372.31,-72.5 1362.31,-69 1362.31,-76"/>
</g>
<!-- 4834289360 -->
<g id="node6" class="node">
<title>4834289360</title>
<polygon fill="none" stroke="black" points="668.25,-82.5 668.25,-118.5 925.5,-118.5 925.5,-82.5 668.25,-82.5"/>
<text text-anchor="middle" x="714.12" y="-95.7" font-family="Times,serif" font-size="14.00">x1w1 + x2w2</text>
<polyline fill="none" stroke="black" points="760,-83 760,-118.5"/>
<text text-anchor="middle" x="802.12" y="-95.7" font-family="Times,serif" font-size="14.00">data &#45;6.0000</text>
<polyline fill="none" stroke="black" points="844.25,-83 844.25,-118.5"/>
<text text-anchor="middle" x="884.88" y="-95.7" font-family="Times,serif" font-size="14.00">grad 0.0000</text>
</g>
<!-- 4834291664+ -->
<g id="node15" class="node">
<title>4834291664+</title>
<ellipse fill="none" stroke="black" cx="988.5" cy="-72.5" rx="27" ry="18"/>
<text text-anchor="middle" x="988.5" y="-67.45" font-family="Times,serif" font-size="14.00">+</text>
</g>
<!-- 4834289360&#45;&gt;4834291664+ -->
<g id="edge7" class="edge">
<title>4834289360&#45;&gt;4834291664+</title>
<path fill="none" stroke="black" d="M923.04,-82.02C932.9,-80.56 942.28,-79.18 950.67,-77.94"/>
<polygon fill="black" stroke="black" points="950.94,-81.44 960.33,-76.51 949.92,-74.51 950.94,-81.44"/>
</g>
<!-- 4834289360+&#45;&gt;4834289360 -->
<g id="edge3" class="edge">
<title>4834289360+&#45;&gt;4834289360</title>
<path fill="none" stroke="black" d="M632.62,-100.5C639.63,-100.5 647.71,-100.5 656.45,-100.5"/>
<polygon fill="black" stroke="black" points="656.32,-104 666.32,-100.5 656.32,-97 656.32,-104"/>
</g>
<!-- 4834392336 -->
<g id="node8" class="node">
<title>4834392336</title>
<polygon fill="none" stroke="black" points="324,-110.5 324,-146.5 542.25,-146.5 542.25,-110.5 324,-110.5"/>
<text text-anchor="middle" x="350.38" y="-123.7" font-family="Times,serif" font-size="14.00">x1*w1</text>
<polyline fill="none" stroke="black" points="376.75,-111 376.75,-146.5"/>
<text text-anchor="middle" x="418.88" y="-123.7" font-family="Times,serif" font-size="14.00">data &#45;6.0000</text>
<polyline fill="none" stroke="black" points="461,-111 461,-146.5"/>
<text text-anchor="middle" x="501.62" y="-123.7" font-family="Times,serif" font-size="14.00">grad 0.0000</text>
</g>
<!-- 4834392336&#45;&gt;4834289360+ -->
<g id="edge13" class="edge">
<title>4834392336&#45;&gt;4834289360+</title>
<path fill="none" stroke="black" d="M542.35,-110.69C551.12,-109.24 559.54,-107.86 567.19,-106.6"/>
<polygon fill="black" stroke="black" points="567.72,-110.06 577.02,-104.98 566.58,-103.15 567.72,-110.06"/>
</g>
<!-- 4834392336*&#45;&gt;4834392336 -->
<g id="edge4" class="edge">
<title>4834392336*&#45;&gt;4834392336</title>
<path fill="none" stroke="black" d="M288.21,-128.5C295.29,-128.5 303.43,-128.5 312.17,-128.5"/>
<polygon fill="black" stroke="black" points="312.01,-132 322.01,-128.5 312.01,-125 312.01,-132"/>
</g>
<!-- 4834392864 -->
<g id="node10" class="node">
<title>4834392864</title>
<polygon fill="none" stroke="black" points="3.75,-55.5 3.75,-91.5 194.25,-91.5 194.25,-55.5 3.75,-55.5"/>
<text text-anchor="middle" x="18.5" y="-68.7" font-family="Times,serif" font-size="14.00">x2</text>
<polyline fill="none" stroke="black" points="33.25,-56 33.25,-91.5"/>
<text text-anchor="middle" x="73.12" y="-68.7" font-family="Times,serif" font-size="14.00">data 0.0000</text>
<polyline fill="none" stroke="black" points="113,-56 113,-91.5"/>
<text text-anchor="middle" x="153.62" y="-68.7" font-family="Times,serif" font-size="14.00">grad 0.0000</text>
</g>
<!-- 4834392864&#45;&gt;4834290800* -->
<g id="edge14" class="edge">
<title>4834392864&#45;&gt;4834290800*</title>
<path fill="none" stroke="black" d="M194.46,-73.5C204.21,-73.5 213.66,-73.5 222.21,-73.5"/>
<polygon fill="black" stroke="black" points="222.12,-77 232.12,-73.5 222.12,-70 222.12,-77"/>
</g>
<!-- 4834392960 -->
<g id="node11" class="node">
<title>4834392960</title>
<polygon fill="none" stroke="black" points="2.25,-0.5 2.25,-36.5 195.75,-36.5 195.75,-0.5 2.25,-0.5"/>
<text text-anchor="middle" x="18.5" y="-13.7" font-family="Times,serif" font-size="14.00">w2</text>
<polyline fill="none" stroke="black" points="34.75,-1 34.75,-36.5"/>
<text text-anchor="middle" x="74.62" y="-13.7" font-family="Times,serif" font-size="14.00">data 1.0000</text>
<polyline fill="none" stroke="black" points="114.5,-1 114.5,-36.5"/>
<text text-anchor="middle" x="155.12" y="-13.7" font-family="Times,serif" font-size="14.00">grad 0.0000</text>
</g>
<!-- 4834392960&#45;&gt;4834290800* -->
<g id="edge6" class="edge">
<title>4834392960&#45;&gt;4834290800*</title>
<path fill="none" stroke="black" d="M168.91,-36.94C178.74,-39.93 188.67,-43.15 198,-46.5 207.96,-50.07 218.58,-54.47 228.18,-58.68"/>
<polygon fill="black" stroke="black" points="226.54,-61.78 237.1,-62.67 229.4,-55.39 226.54,-61.78"/>
</g>
<!-- 4834391424 -->
<g id="node12" class="node">
<title>4834391424</title>
<polygon fill="none" stroke="black" points="705,-27.5 705,-63.5 888.75,-63.5 888.75,-27.5 705,-27.5"/>
<text text-anchor="middle" x="716.38" y="-40.7" font-family="Times,serif" font-size="14.00">b</text>
<polyline fill="none" stroke="black" points="727.75,-28 727.75,-63.5"/>
<text text-anchor="middle" x="767.62" y="-40.7" font-family="Times,serif" font-size="14.00">data 6.8814</text>
<polyline fill="none" stroke="black" points="807.5,-28 807.5,-63.5"/>
<text text-anchor="middle" x="848.12" y="-40.7" font-family="Times,serif" font-size="14.00">grad 0.0000</text>
</g>
<!-- 4834391424&#45;&gt;4834291664+ -->
<g id="edge12" class="edge">
<title>4834391424&#45;&gt;4834291664+</title>
<path fill="none" stroke="black" d="M889.08,-58.49C910.92,-61.6 933.02,-64.74 950.73,-67.26"/>
<polygon fill="black" stroke="black" points="950.07,-70.71 960.46,-68.65 951.05,-63.78 950.07,-70.71"/>
</g>
<!-- 4834391952 -->
<g id="node13" class="node">
<title>4834391952</title>
<polygon fill="none" stroke="black" points="3.75,-110.5 3.75,-146.5 194.25,-146.5 194.25,-110.5 3.75,-110.5"/>
<text text-anchor="middle" x="18.5" y="-123.7" font-family="Times,serif" font-size="14.00">x1</text>
<polyline fill="none" stroke="black" points="33.25,-111 33.25,-146.5"/>
<text text-anchor="middle" x="73.12" y="-123.7" font-family="Times,serif" font-size="14.00">data 2.0000</text>
<polyline fill="none" stroke="black" points="113,-111 113,-146.5"/>
<text text-anchor="middle" x="153.62" y="-123.7" font-family="Times,serif" font-size="14.00">grad 0.0000</text>
</g>
<!-- 4834391952&#45;&gt;4834392336* -->
<g id="edge10" class="edge">
<title>4834391952&#45;&gt;4834392336*</title>
<path fill="none" stroke="black" d="M194.46,-128.5C204.21,-128.5 213.66,-128.5 222.21,-128.5"/>
<polygon fill="black" stroke="black" points="222.12,-132 232.12,-128.5 222.12,-125 222.12,-132"/>
</g>
<!-- 4834291664 -->
<g id="node14" class="node">
<title>4834291664</title>
<polygon fill="none" stroke="black" points="1051.5,-54.5 1051.5,-90.5 1235.25,-90.5 1235.25,-54.5 1051.5,-54.5"/>
<text text-anchor="middle" x="1062.88" y="-67.7" font-family="Times,serif" font-size="14.00">n</text>
<polyline fill="none" stroke="black" points="1074.25,-55 1074.25,-90.5"/>
<text text-anchor="middle" x="1114.12" y="-67.7" font-family="Times,serif" font-size="14.00">data 0.8814</text>
<polyline fill="none" stroke="black" points="1154,-55 1154,-90.5"/>
<text text-anchor="middle" x="1194.62" y="-67.7" font-family="Times,serif" font-size="14.00">grad 0.0000</text>
</g>
<!-- 4834291664&#45;&gt;4834290320ReLU -->
<g id="edge8" class="edge">
<title>4834291664&#45;&gt;4834290320ReLU</title>
<path fill="none" stroke="black" d="M1235.66,-72.5C1243.88,-72.5 1251.92,-72.5 1259.44,-72.5"/>
<polygon fill="black" stroke="black" points="1259.25,-76 1269.25,-72.5 1259.25,-69 1259.25,-76"/>
</g>
<!-- 4834291664+&#45;&gt;4834291664 -->
<g id="edge5" class="edge">
<title>4834291664+&#45;&gt;4834291664</title>
<path fill="none" stroke="black" d="M1015.78,-72.5C1022.92,-72.5 1031.11,-72.5 1039.82,-72.5"/>
<polygon fill="black" stroke="black" points="1039.56,-76 1049.56,-72.5 1039.56,-69 1039.56,-76"/>
</g>
</g>
</svg>