<svg viewBox="-912.5 -598.5 1825 1197" width="1825" height="1197" style="background-color: rgb(255, 255, 255);" xmlns="http://www.w3.org/2000/svg"><path d="M-605.4223273388317,-151.92004692661092L-610.805283467129,-153.63690996823047M-610.805283467129,-363.6632351868964L-610.805283467129,-153.63690996823047M-610.805283467129,-153.63690996823047L-744.2274535301765,-60.57387891367078M-605.4223273388317,-361.9463721452768L-605.4223273388317,-151.92004692661092M-605.4223273388317,-151.92004692661092L-738.8444974018792,-58.85701587205124" style="fill:none;stroke:rgb(0,0,0);stroke-width:1;stroke-linecap:round"></path><path d="M-605.4223273388316,-151.92004692661092L-610.8052834671289,-153.6369099682305L-610.8052834671289,-363.6632351868964zM-744.2274535301764,-60.5738789136708L-610.8052834671289,-153.6369099682305L-605.4223273388316,-151.92004692661092z" style="fill:rgb(238,238,238); fill-opacity: 0.32"></path><path d="M-315.37928922184415,-60.23990782316346L-501.9383380384251,-119.74184845930111M-501.9383380384251,-325.0971949828175L-501.9383380384251,-119.74184845930111M-501.9383380384251,-119.74184845930111L-632.3932033449081,-28.74853621217807" style="fill:none;stroke:rgb(0,0,0);stroke-width:1;stroke-linecap:round"></path><path d="M-605.4223273388316,-361.9463721452768L-605.4223273388316,-151.92004692661092L-610.8052834671289,-363.6632351868964z" style="fill:rgb(238,238,238); fill-opacity: 0.32"></path><path d="M-623.2477709706914,-264.5536171736402L-628.6307270989888,-266.27048021525974M-628.6307270989887,-283.4602728524226L-628.6307270989888,-266.27048021525974M-628.6307270989888,-266.27048021525974L-639.550784068972,-258.6536531134753M-625.9392457516219,-282.60183813875153L-625.9392457516219,-265.41204686771067M-625.9392457516219,-265.41204686771067L-636.8593027216052,-257.7952197659262M-625.9392457516219,-265.41204686771067L-524.705931283422,-234.55048553300662M-623.2477709706914,-281.7434098108031L-623.2477709706914,-264.5536171736402M-623.2477709706914,-264.5536171736402L-634.1678279406747,-256.93679007185574" style="fill:none;stroke:rgb(0,0,0);stroke-width:1;stroke-linecap:round"></path><path d="M-623.2477709706915,-264.5536171736402L-628.6307270989888,-266.27048021525974L-628.6307270989888,-283.4602728524226zM-639.550784068972,-258.6536531134753L-628.6307270989888,-266.27048021525974L-623.2477709706915,-264.5536171736402zM-623.2477709706915,-281.74340981080303L-623.2477709706915,-264.5536171736402L-628.6307270989888,-283.4602728524226z" style="fill:rgb(153,221,255); fill-opacity: 0.4"></path><path d="M-738.844497401879,-58.85701587205124L-605.4223273388316,-151.92004692661092L-605.4223273388316,-361.9463721452768z" style="fill:rgb(238,238,238); fill-opacity: 0.32"></path><path d="M-623.2477709706914,-281.7434098108031L-628.6307270989887,-283.4602728524226M-628.6307270989887,-283.4602728524226L-639.550784068972,-275.8434457506381" style="fill:none;stroke:rgb(0,0,0);stroke-width:1;stroke-linecap:round"></path><path d="M-625.9392490348401,-282.60184133161283L-625.9392490348401,-265.41204869444994L-636.8593060048233,-257.7952215926655z" style="fill:rgb(255,187,187); fill-opacity: 0.4"></path><path d="M-625.9392457516219,-282.60183813875153L-636.8593027216052,-274.9850110369671M-625.9392457516219,-282.60183813875153L-524.705931283422,-234.55048553300662" style="fill:none;stroke:rgb(0,0,0);stroke-width:1;stroke-linecap:round"></path><path d="M-628.6307270989888,-283.4602728524226L-628.6307270989888,-266.27048021525974L-639.550784068972,-275.8434457506381zM-634.1678279406746,-256.93679007185574L-623.2477709706915,-264.5536171736402L-623.2477709706915,-281.74340981080303zM-634.1678279406746,-256.93679007185574L-639.550784068972,-258.6536531134753L-623.2477709706915,-264.5536171736402z" style="fill:rgb(153,221,255); fill-opacity: 0.4"></path><path d="M-623.2477709706914,-281.7434098108031L-634.1678279406746,-274.12658270901863" style="fill:none;stroke:rgb(0,0,0);stroke-width:1;stroke-linecap:round"></path><path d="M-628.6307270989888,-266.27048021525974L-639.550784068972,-258.6536531134753L-639.550784068972,-275.8434457506381z" style="fill:rgb(153,221,255); fill-opacity: 0.4"></path><path d="M-639.550784068972,-275.8434457506381L-639.550784068972,-258.6536531134753M-639.550784068972,-258.6536531134753L-634.1678279406747,-256.93679007185574M-636.8593027216052,-257.7952197659262L-636.8593027216052,-274.9850110369671M-636.8593027216052,-257.7952197659262L-524.705931283422,-234.55048553300662" style="fill:none;stroke:rgb(0,0,0);stroke-width:1;stroke-linecap:round"></path><path d="M-634.1678279406746,-274.1265827090186L-623.2477709706915,-281.74340981080303L-628.6307270989888,-283.4602728524226z" style="fill:rgb(153,221,255); fill-opacity: 0.4"></path><path d="M-625.9392490348401,-282.60184133161283L-636.8593060048233,-257.7952215926655L-636.8593060048233,-274.9850142298284z" style="fill:rgb(255,187,187); fill-opacity: 0.4"></path><path d="M-634.1678279406746,-274.12658270901863L-634.1678279406747,-256.93679007185574" style="fill:none;stroke:rgb(0,0,0);stroke-width:1;stroke-linecap:round"></path><path d="M-634.1678279406746,-274.1265827090186L-634.1678279406746,-256.93679007185574L-623.2477709706915,-281.74340981080303zM-639.550784068972,-258.6536531134753L-634.1678279406746,-256.93679007185574L-634.1678279406746,-274.1265827090186zM-639.550784068972,-275.8434457506381L-634.1678279406746,-274.1265827090186L-628.6307270989888,-283.4602728524226zM-639.550784068972,-275.8434457506381L-639.550784068972,-258.6536531134753L-634.1678279406746,-274.1265827090186z" style="fill:rgb(153,221,255); fill-opacity: 0.4"></path><path d="M-605.4223273388317,-361.9463721452768L-610.805283467129,-363.6632351868964M-610.805283467129,-363.6632351868964L-744.2274535301765,-270.60020413233667M-639.550784068972,-275.8434457506381L-634.1678279406746,-274.12658270901863M-636.8593027216052,-274.9850110369671L-524.705931283422,-234.55048553300662M-605.4223273388317,-361.9463721452768L-738.8444974018792,-268.8833410907171" style="fill:none;stroke:rgb(0,0,0);stroke-width:1;stroke-linecap:round"></path><path d="M-738.844497401879,-58.85701587205124L-744.2274535301764,-60.5738789136708L-605.4223273388316,-151.92004692661092z" style="fill:rgb(238,238,238); fill-opacity: 0.32"></path><path d="M-625.9392490348401,-265.41204869444994L-625.9392490348401,-282.60184133161283L-524.7059372469013,-234.55048501250747zM-636.8593060048233,-257.7952215926655L-625.9392490348401,-265.41204869444994L-524.7059372469013,-234.55048501250747zM-625.9392490348401,-282.60184133161283L-636.8593060048233,-274.9850142298284L-524.7059372469013,-234.55048501250747zM-636.8593060048233,-274.9850142298284L-636.8593060048233,-257.7952215926655L-524.7059372469013,-234.55048501250747z" style="fill:rgb(255,187,187); fill-opacity: 0.4"></path><path d="M-610.8052834671289,-363.6632351868964L-610.8052834671289,-153.6369099682305L-744.2274535301764,-270.60020413233667zM-315.37928922184415,-60.239907823163456L-501.93833803842523,-119.74184845930111L-501.93833803842523,-325.0971949828175zM-610.8052834671289,-153.6369099682305L-744.2274535301764,-60.5738789136708L-744.2274535301764,-270.60020413233667zM-632.3932033449081,-28.74853621217807L-501.93833803842523,-119.74184845930111L-315.37928922184415,-60.239907823163456zM-738.844497401879,-268.8833410907171L-605.4223273388316,-361.9463721452768L-610.8052834671289,-363.6632351868964z" style="fill:rgb(238,238,238); fill-opacity: 0.32"></path><path d="M-744.2274535301765,-270.60020413233667L-744.2274535301765,-60.57387891367078M-744.2274535301765,-60.57387891367078L-738.8444974018792,-58.85701587205124M-738.8444974018792,-268.8833410907171L-738.8444974018792,-58.85701587205124M-315.3792892218441,-265.59525434667984L-501.9383380384251,-325.0971949828175M-501.9383380384251,-325.0971949828175L-632.3932033449081,-234.10388273569447M-315.3792892218441,-265.59525434667984L-315.37928922184415,-60.23990782316346M-315.37928922184415,-60.23990782316346L-445.83415452832713,30.753404423959584M-365.1104355388395,-135.5628805942669L-551.6694843554205,-195.06482123040453M-551.6694843554205,-212.2546138675674L-551.6694843554205,-195.06482123040453M-551.6694843554205,-195.06482123040453L-562.5895413254037,-187.44799412862008" style="fill:none;stroke:rgb(0,0,0);stroke-width:1;stroke-linecap:round"></path><path d="M-738.844497401879,-268.8833410907171L-738.844497401879,-58.85701587205124L-605.4223273388316,-361.9463721452768zM-501.93833803842523,-325.0971949828175L-501.93833803842523,-119.74184845930111L-632.3932033449081,-234.10388273569447z" style="fill:rgb(238,238,238); fill-opacity: 0.32"></path><path d="M-365.1104355388395,-152.75267323142978L-551.6694843554205,-212.2546138675674M-551.6694843554205,-212.2546138675674L-562.5895413254037,-204.63778676578295" style="fill:none;stroke:rgb(0,0,0);stroke-width:1;stroke-linecap:round"></path><path d="M-551.6694843554205,-212.2546138675674L-551.6694843554205,-195.06482123040456L-562.5895413254037,-204.63778676578295zM-551.6694843554205,-195.06482123040456L-562.5895413254037,-187.44799412862008L-562.5895413254037,-204.63778676578295z" style="fill:rgb(153,221,255); fill-opacity: 0.4"></path><path d="M-562.5895413254037,-204.63778676578295L-562.5895413254037,-187.44799412862008M-562.5895413254037,-187.44799412862008L-376.0304925088227,-127.94605349248243" style="fill:none;stroke:rgb(0,0,0);stroke-width:1;stroke-linecap:round"></path><path d="M-744.2274535301764,-60.5738789136708L-738.844497401879,-58.85701587205124L-738.844497401879,-268.8833410907171z" style="fill:rgb(238,238,238); fill-opacity: 0.32"></path><path d="M-562.5895413254037,-204.63778676578295L-376.0304925088227,-145.1358461296453" style="fill:none;stroke:rgb(0,0,0);stroke-width:1;stroke-linecap:round"></path><path d="M-315.37928922184415,-265.59525434667984L-315.37928922184415,-60.239907823163456L-501.93833803842523,-325.0971949828175zM-501.93833803842523,-119.74184845930111L-632.3932033449081,-28.74853621217807L-632.3932033449081,-234.10388273569447zM-744.2274535301764,-270.60020413233667L-738.844497401879,-268.8833410907171L-610.8052834671289,-363.6632351868964z" style="fill:rgb(238,238,238); fill-opacity: 0.32"></path><path d="M-365.1104355388395,-135.5628805942669L-551.6694843554205,-195.06482123040456L-551.6694843554205,-212.2546138675674zM-562.5895413254037,-187.44799412862008L-551.6694843554205,-195.06482123040456L-365.1104355388395,-135.5628805942669z" style="fill:rgb(153,221,255); fill-opacity: 0.4"></path><path d="M-632.3932033449081,-234.10388273569447L-632.3932033449081,-28.74853621217807M-632.3932033449081,-28.74853621217807L-445.83415452832713,30.753404423959584M14.548213237256489,44.094891904302536L-209.3226289151623,-27.307431619612462M-209.3226289151623,-227.6177443212809L-209.3226289151623,-27.307431619612462M-209.3226289151623,-27.307431619612462L-336.5725656973204,61.45041734096721" style="fill:none;stroke:rgb(0,0,0);stroke-width:1;stroke-linecap:round"></path><path d="M-562.5895413254037,-204.63778676578295L-376.03049250882276,-145.13584612964533L-551.6694843554205,-212.2546138675674z" style="fill:rgb(153,221,255); fill-opacity: 0.4"></path><path d="M-744.2274535301764,-270.60020413233667L-744.2274535301764,-60.5738789136708L-738.844497401879,-268.8833410907171z" style="fill:rgb(238,238,238); fill-opacity: 0.32"></path><path d="M-562.5895413254037,-204.63778676578295L-562.5895413254037,-187.44799412862008L-376.03049250882276,-145.13584612964533z" style="fill:rgb(153,221,255); fill-opacity: 0.4"></path><path d="M-445.83415452832713,30.753404423959598L-632.3932033449081,-28.74853621217807L-315.37928922184415,-60.239907823163456z" style="fill:rgb(238,238,238); fill-opacity: 0.32"></path><path d="M-365.1104355388395,-152.75267323142978L-365.1104355388395,-135.5628805942669L-551.6694843554205,-212.2546138675674z" style="fill:rgb(153,221,255); fill-opacity: 0.4"></path><path d="M-445.83415452832713,30.753404423959598L-315.37928922184415,-60.239907823163456L-315.37928922184415,-265.59525434667984z" style="fill:rgb(238,238,238); fill-opacity: 0.32"></path><path d="M-376.03049250882276,-127.94605349248243L-562.5895413254037,-187.44799412862008L-365.1104355388395,-135.5628805942669zM-376.03049250882276,-145.13584612964533L-365.1104355388395,-152.75267323142978L-551.6694843554205,-212.2546138675674zM-562.5895413254037,-187.44799412862008L-376.03049250882276,-127.94605349248243L-376.03049250882276,-145.13584612964533z" style="fill:rgb(153,221,255); fill-opacity: 0.4"></path><path d="M-744.2274535301765,-270.60020413233667L-738.8444974018792,-268.8833410907171M-315.3792892218441,-265.59525434667984L-445.8341545283271,-174.6019420995568M-365.11043851616733,-152.75267280683306L-365.11043851616733,-135.56288153579217M-365.11043851616733,-135.56288153579217L-376.03049548615064,-127.9460544340077M-365.11043851616733,-135.56288153579217L-263.1579079068215,-105.44881286361765M-365.1104355388395,-152.75267323142978L-365.1104355388395,-135.5628805942669M-365.1104355388395,-135.5628805942669L-376.0304925088227,-127.94605349248243" style="fill:none;stroke:rgb(0,0,0);stroke-width:1;stroke-linecap:round"></path><path d="M-445.83415452832713,-174.6019420995568L-315.37928922184415,-265.59525434667984L-501.93833803842523,-325.0971949828175z" style="fill:rgb(238,238,238); fill-opacity: 0.32"></path><path d="M-365.1104383619498,-152.75267413184463L-365.1104383619498,-135.56288149468176L-376.03049533193297,-127.9460543928973z" style="fill:rgb(255,187,187); fill-opacity: 0.4"></path><path d="M-376.03049250882276,-127.94605349248243L-365.1104355388395,-135.5628805942669L-365.1104355388395,-152.75267323142978z" style="fill:rgb(153,221,255); fill-opacity: 0.4"></path><path d="M-365.11043851616733,-152.75267280683306L-376.03049548615064,-145.1358457050486M-365.11043851616733,-152.75267280683306L-263.1579079068215,-105.44881286361765M-365.1104355388395,-152.75267323142978L-376.0304925088227,-145.1358461296453M-376.03049548615064,-127.9460544340077L-376.03049548615064,-145.1358457050486M-376.03049548615064,-127.9460544340077L-263.1579079068215,-105.44881286361765M-376.0304925088227,-145.1358461296453L-376.0304925088227,-127.94605349248243" style="fill:none;stroke:rgb(0,0,0);stroke-width:1;stroke-linecap:round"></path><path d="M-365.1104383619498,-152.75267413184463L-376.03049533193297,-127.9460543928973L-376.03049533193297,-145.13584703006018z" style="fill:rgb(255,187,187); fill-opacity: 0.4"></path><path d="M-376.03049250882276,-145.13584612964533L-376.03049250882276,-127.94605349248243L-365.1104355388395,-152.75267323142978z" style="fill:rgb(153,221,255); fill-opacity: 0.4"></path><path d="M-376.03049548615064,-145.1358457050486L-263.1579079068215,-105.44881286361765" style="fill:none;stroke:rgb(0,0,0);stroke-width:1;stroke-linecap:round"></path><path d="M14.548213237256538,44.09489190430254L-209.3226289151623,-27.307431619612473L-209.3226289151623,-227.6177443212809zM-632.3932033449081,-234.10388273569447L-445.83415452832713,-174.6019420995568L-501.93833803842523,-325.0971949828175z" style="fill:rgb(238,238,238); fill-opacity: 0.32"></path><path d="M-365.1104383619498,-135.56288149468176L-365.1104383619498,-152.75267413184463L-263.15790826212486,-105.44881309438306zM-376.03049533193297,-127.9460543928973L-365.1104383619498,-135.56288149468176L-263.15790826212486,-105.44881309438306zM-365.1104383619498,-152.75267413184463L-376.03049533193297,-145.13584703006018L-263.15790826212486,-105.44881309438306zM-376.03049533193297,-145.13584703006018L-376.03049533193297,-127.9460543928973L-263.15790826212486,-105.44881309438306z" style="fill:rgb(255,187,187); fill-opacity: 0.4"></path><path d="M-336.5725656973204,61.450417340967206L-209.3226289151623,-27.307431619612473L14.548213237256538,44.09489190430254z" style="fill:rgb(238,238,238); fill-opacity: 0.32"></path><path d="M-632.3932033449081,-234.10388273569447L-445.8341545283271,-174.6019420995568" style="fill:none;stroke:rgb(0,0,0);stroke-width:1;stroke-linecap:round"></path><path d="M-632.3932033449081,-234.10388273569447L-632.3932033449081,-28.74853621217807L-445.83415452832713,-174.6019420995568zM-632.3932033449081,-28.74853621217807L-445.83415452832713,30.753404423959598L-445.83415452832713,-174.6019420995568z" style="fill:rgb(238,238,238); fill-opacity: 0.32"></path><path d="M-445.8341545283271,-174.6019420995568L-445.83415452832713,30.753404423959584M14.548213237256489,-156.21542079736588L-209.3226289151623,-227.6177443212809M-209.3226289151623,-227.6177443212809L-336.5725656973204,-138.8598953607012" style="fill:none;stroke:rgb(0,0,0);stroke-width:1;stroke-linecap:round"></path><path d="M-445.83415452832713,-174.6019420995568L-445.83415452832713,30.753404423959598L-315.37928922184415,-265.59525434667984zM-209.3226289151623,-227.6177443212809L-209.3226289151623,-27.307431619612473L-336.5725656973204,-138.8598953607012z" style="fill:rgb(238,238,238); fill-opacity: 0.32"></path><path d="M14.548213237256489,-156.21542079736588L14.548213237256489,44.094891904302536M14.548213237256489,44.094891904302536L-112.70172354490163,132.85274086488224" style="fill:none;stroke:rgb(0,0,0);stroke-width:1;stroke-linecap:round"></path><path d="M-209.3226289151623,-27.307431619612473L-336.5725656973204,61.450417340967206L-336.5725656973204,-138.8598953607012zM14.548213237256538,-156.21542079736585L14.548213237256538,44.09489190430254L-209.3226289151623,-227.6177443212809z" style="fill:rgb(238,238,238); fill-opacity: 0.32"></path><path d="M-336.5725656973204,-138.8598953607012L-336.5725656973204,61.45041734096721M-336.5725656973204,61.45041734096721L-112.70172354490163,132.85274086488224M-55.34172644723343,-63.079230718768436L-279.21256859965223,-134.48155424268344M-279.2125685996522,-151.67134687984634L-279.21256859965223,-134.48155424268344M-279.21256859965223,-134.48155424268344L-290.13262556963554,-126.86472714089899M-55.34172644723343,-80.2690233559313L-279.2125685996522,-151.67134687984634M-279.2125685996522,-151.67134687984634L-290.13262556963554,-144.05451977806186" style="fill:none;stroke:rgb(0,0,0);stroke-width:1;stroke-linecap:round"></path><path d="M-279.2125685996522,-151.67134687984634L-279.2125685996522,-134.48155424268344L-290.1326255696355,-144.05451977806186zM-279.2125685996522,-134.48155424268344L-290.1326255696355,-126.86472714089899L-290.1326255696355,-144.05451977806186z" style="fill:rgb(153,221,255); fill-opacity: 0.4"></path><path d="M-290.13262556963554,-144.05451977806186L-290.13262556963554,-126.86472714089899M-290.13262556963554,-126.86472714089899L-66.26178341721672,-55.46240361698398M-290.13262556963554,-144.05451977806186L-66.2617834172167,-72.65219625414684" style="fill:none;stroke:rgb(0,0,0);stroke-width:1;stroke-linecap:round"></path><path d="M-112.70172354490163,132.85274086488224L-336.5725656973204,61.450417340967206L14.548213237256538,44.09489190430254z" style="fill:rgb(238,238,238); fill-opacity: 0.32"></path><path d="M-55.341726447233405,-63.079230718768436L-279.2125685996522,-134.48155424268344L-279.2125685996522,-151.67134687984634zM-290.1326255696355,-126.86472714089899L-279.2125685996522,-134.48155424268344L-55.341726447233405,-63.079230718768436z" style="fill:rgb(153,221,255); fill-opacity: 0.4"></path><path d="M-112.70172354490163,132.85274086488224L14.548213237256538,44.09489190430254L14.548213237256538,-156.21542079736585z" style="fill:rgb(238,238,238); fill-opacity: 0.32"></path><path d="M332.20130948680736,137.6694442706104L108.33046733438856,66.2671207466954M108.33046733438857,-90.35465479734967L108.33046733438856,66.2671207466954M108.33046733438856,66.2671207466954L8.834286793889156,135.66650268655684" style="fill:none;stroke:rgb(0,0,0);stroke-width:1;stroke-linecap:round"></path><path d="M-290.1326255696355,-144.05451977806186L-66.26178341721669,-72.65219625414684L-279.2125685996522,-151.67134687984634zM-290.1326255696355,-144.05451977806186L-290.1326255696355,-126.86472714089899L-66.26178341721669,-72.65219625414684z" style="fill:rgb(153,221,255); fill-opacity: 0.4"></path><path d="M14.548213237256489,-156.21542079736588L-112.70172354490163,-67.4575718367862" style="fill:none;stroke:rgb(0,0,0);stroke-width:1;stroke-linecap:round"></path><path d="M-112.70172354490163,-67.4575718367862L14.548213237256538,-156.21542079736585L-209.3226289151623,-227.6177443212809zM-336.5725656973204,-138.8598953607012L-112.70172354490163,-67.4575718367862L-209.3226289151623,-227.6177443212809z" style="fill:rgb(238,238,238); fill-opacity: 0.32"></path><path d="M-55.341726447233405,-80.2690233559313L-55.341726447233405,-63.079230718768436L-279.2125685996522,-151.67134687984634zM-66.26178341721669,-55.46240361698398L-290.1326255696355,-126.86472714089899L-55.341726447233405,-63.079230718768436z" style="fill:rgb(153,221,255); fill-opacity: 0.4"></path><path d="M-336.5725656973204,-138.8598953607012L-112.70172354490163,-67.4575718367862" style="fill:none;stroke:rgb(0,0,0);stroke-width:1;stroke-linecap:round"></path><path d="M-66.26178341721669,-72.65219625414684L-55.341726447233405,-80.2690233559313L-279.2125685996522,-151.67134687984634zM-290.1326255696355,-126.86472714089899L-66.26178341721669,-55.46240361698398L-66.26178341721669,-72.65219625414684z" style="fill:rgb(153,221,255); fill-opacity: 0.4"></path><path d="M-336.5725656973204,-138.8598953607012L-336.5725656973204,61.450417340967206L-112.70172354490163,-67.4575718367862zM-336.5725656973204,61.450417340967206L-112.70172354490163,132.85274086488224L-112.70172354490163,-67.4575718367862z" style="fill:rgb(238,238,238); fill-opacity: 0.32"></path><path d="M-112.70172354490163,-67.4575718367862L-112.70172354490163,132.85274086488224" style="fill:none;stroke:rgb(0,0,0);stroke-width:1;stroke-linecap:round"></path><path d="M332.2013094868074,137.6694442706104L108.33046733438856,66.2671207466954L108.33046733438856,-90.35465479734967z" style="fill:rgb(238,238,238); fill-opacity: 0.32"></path><path d="M-55.34172644723343,-80.2690233559313L-55.34172644723343,-63.079230718768436M-55.34172644723343,-63.079230718768436L-66.26178341721672,-55.46240361698398M-55.34172088186822,-80.26902379380599L-55.34172088186822,-63.07923115664311M-55.34172088186822,-63.07923115664311L-66.26177828577558,-55.46240375219314M-55.34172088186822,-63.07923115664311L49.414646171548576,-21.274399266514394M332.20130948680736,-18.952331273434684L108.33046733438857,-90.35465479734967M108.33046733438857,-90.35465479734967L8.834286793889156,-20.955272857488243" style="fill:none;stroke:rgb(0,0,0);stroke-width:1;stroke-linecap:round"></path><path d="M8.834286793889156,135.66650268655684L108.33046733438856,66.2671207466954L332.2013094868074,137.6694442706104zM-112.70172354490163,-67.4575718367862L-112.70172354490163,132.85274086488224L14.548213237256538,-156.21542079736585z" style="fill:rgb(238,238,238); fill-opacity: 0.32"></path><path d="M-66.26178341721669,-55.46240361698398L-55.341726447233405,-63.079230718768436L-55.341726447233405,-80.2690233559313z" style="fill:rgb(153,221,255); fill-opacity: 0.4"></path><path d="M-55.34172162122655,-80.26902181670404L-55.34172162122655,-63.07922917954117L-66.26177859120983,-55.46240207775671z" style="fill:rgb(255,187,187); fill-opacity: 0.4"></path><path d="M-55.34172644723343,-80.2690233559313L-66.2617834172167,-72.65219625414684M-55.34172088186822,-80.26902379380599L-66.26177828577558,-72.65219638935602M-55.34172088186822,-80.26902379380599L49.414646171548576,-21.274399266514394M-66.2617834172167,-72.65219625414684L-66.26178341721672,-55.46240361698398M-66.26177828577558,-55.46240375219314L-66.26177828577558,-72.65219638935602M-66.26177828577558,-55.46240375219314L49.414646171548576,-21.274399266514394" style="fill:none;stroke:rgb(0,0,0);stroke-width:1;stroke-linecap:round"></path><path d="M-66.26178341721669,-72.65219625414684L-66.26178341721669,-55.46240361698398L-55.341726447233405,-80.2690233559313z" style="fill:rgb(153,221,255); fill-opacity: 0.4"></path><path d="M-55.34172162122655,-80.26902181670404L-66.26177859120983,-55.46240207775671L-66.26177859120983,-72.65219471491959z" style="fill:rgb(255,187,187); fill-opacity: 0.4"></path><path d="M108.33046733438856,-90.35465479734967L108.33046733438856,66.2671207466954L8.834286793889156,-20.955272857488243z" style="fill:rgb(238,238,238); fill-opacity: 0.32"></path><path d="M-66.26177828577558,-72.65219638935602L49.414646171548576,-21.274399266514394" style="fill:none;stroke:rgb(0,0,0);stroke-width:1;stroke-linecap:round"></path><path d="M-55.34172162122655,-63.07922917954117L-55.34172162122655,-80.26902181670404L49.414645234928514,-21.27439810756219zM-66.26177859120983,-55.46240207775671L-55.34172162122655,-63.07922917954117L49.414645234928514,-21.27439810756219zM-55.34172162122655,-80.26902181670404L-66.26177859120983,-72.65219471491959L49.414645234928514,-21.27439810756219z" style="fill:rgb(255,187,187); fill-opacity: 0.4"></path><path d="M108.33046733438856,66.2671207466954L8.834286793889156,135.66650268655684L8.834286793889156,-20.955272857488243z" style="fill:rgb(238,238,238); fill-opacity: 0.32"></path><path d="M-66.26177859120983,-72.65219471491959L-66.26177859120983,-55.46240207775671L49.414645234928514,-21.27439810756219z" style="fill:rgb(255,187,187); fill-opacity: 0.4"></path><path d="M8.834286793889156,-20.955272857488243L8.834286793889156,135.66650268655684M8.834286793889156,135.66650268655684L232.70512894630795,207.0688262104718M332.20130948680736,-18.952331273434684L332.20130948680736,137.6694442706104M332.20130948680736,137.6694442706104L232.70512894630795,207.0688262104718" style="fill:none;stroke:rgb(0,0,0);stroke-width:1;stroke-linecap:round"></path><path d="M332.2013094868074,-18.95233127343467L332.2013094868074,137.6694442706104L108.33046733438856,-90.35465479734967z" style="fill:rgb(238,238,238); fill-opacity: 0.32"></path><path d="M465.5537098997982,399.8859136907113L424.5107202895395,386.7954871109732M424.5107202895395,-136.27250915428277L424.5107202895395,386.7954871109732M424.5107202895395,386.7954871109732L396.7569623121845,406.1539553423536" style="fill:none;stroke:rgb(0,0,0);stroke-width:1;stroke-linecap:round"></path><path d="M232.70512894630795,207.0688262104718L8.834286793889156,135.66650268655684L332.2013094868074,137.6694442706104zM396.75696231218444,406.1539553423535L424.51072028953945,386.7954871109732L465.5537098997981,399.8859136907113z" style="fill:rgb(238,238,238); fill-opacity: 0.32"></path><path d="M465.5537098997982,-123.18208257454471L465.5537098997982,399.8859136907113M465.5537098997982,399.8859136907113L437.7999519224432,419.2443819220917M396.75696231218456,-116.91404092290247L396.7569623121845,406.1539553423536M396.7569623121845,406.1539553423536L437.7999519224432,419.2443819220917" style="fill:none;stroke:rgb(0,0,0);stroke-width:1;stroke-linecap:round"></path><path d="M437.79995192244314,419.2443819220917L396.75696231218444,406.1539553423535L465.5537098997981,399.8859136907113zM232.70512894630795,207.0688262104718L332.2013094868074,137.6694442706104L332.2013094868074,-18.95233127343467z" style="fill:rgb(238,238,238); fill-opacity: 0.32"></path><path d="M8.834286793889156,-20.955272857488243L232.70512894630795,50.44705066642674" style="fill:none;stroke:rgb(0,0,0);stroke-width:1;stroke-linecap:round"></path><path d="M8.834286793889156,-20.955272857488243L232.70512894630795,50.447050666426776L108.33046733438856,-90.35465479734967zM232.70512894630795,50.447050666426776L332.2013094868074,-18.95233127343467L108.33046733438856,-90.35465479734967z" style="fill:rgb(238,238,238); fill-opacity: 0.32"></path><path d="M332.20130948680736,-18.952331273434684L232.70512894630795,50.44705066642674M437.7999519224432,-103.82361434316438L437.7999519224432,419.2443819220917" style="fill:none;stroke:rgb(0,0,0);stroke-width:1;stroke-linecap:round"></path><path d="M8.834286793889156,-20.955272857488243L8.834286793889156,135.66650268655684L232.70512894630795,50.447050666426776zM8.834286793889156,135.66650268655684L232.70512894630795,207.0688262104718L232.70512894630795,50.447050666426776z" style="fill:rgb(238,238,238); fill-opacity: 0.32"></path><path d="M308.3576749196015,102.32032532124924L369.3645110403052,121.77810645960407" style="fill:none;stroke:rgb(0,0,0);stroke-width:1;stroke-linecap:round"></path><path d="M465.5537098997981,399.8859136907113L424.51072028953945,386.7954871109732L424.51072028953956,-136.2725091542828z" style="fill:rgb(238,238,238); fill-opacity: 0.32"></path><path d="M232.70512894630795,50.44705066642674L232.70512894630795,207.0688262104718" style="fill:none;stroke:rgb(0,0,0);stroke-width:1;stroke-linecap:round"></path><path d="M232.70512894630795,50.447050666426776L232.70512894630795,207.0688262104718L332.2013094868074,-18.95233127343467zM424.51072028953945,386.7954871109732L396.75696231218444,406.1539553423535L396.75696231218456,-116.9140409229025zM437.79995192244314,419.2443819220917L465.5537098997981,399.8859136907113L465.5537098997983,-123.18208257454471z" style="fill:rgb(238,238,238); fill-opacity: 0.32"></path><path d="M360.7098513747967,132.2414159804767L369.36451104030516,136.1029336572398L405.25088522895436,133.22386007040097zM374.71338466569256,106.4581955506289L364.01563741491776,113.9199598446907L405.25088522895436,133.22386007040097z" style="fill:rgb(0,0,0)"></path><path d="M396.75696231218444,406.1539553423535L437.79995192244314,419.2443819220917L437.79995192244326,-103.82361434316438z" style="fill:rgb(238,238,238); fill-opacity: 0.32"></path><path d="M364.01563741491776,113.9199598446907L360.7098513747967,132.2414159804767L405.25088522895436,133.22386007040097z" style="fill:rgb(0,0,0)"></path><path d="M614.2558219632251,324.78859076066664L573.2128323529665,311.6981641809286M573.2128323529665,33.68018852807924L573.2128323529665,311.6981641809286M573.2128323529665,311.6981641809286L545.4590743756115,331.05663241230883" style="fill:none;stroke:rgb(0,0,0);stroke-width:1;stroke-linecap:round"></path><path d="M545.4590743756114,331.05663241230883L573.2128323529665,311.6981641809285L614.2558219632251,324.78859076066664z" style="fill:rgb(238,238,238); fill-opacity: 0.32"></path><path d="M614.2558219632251,46.770615107817314L614.2558219632251,324.78859076066664M614.2558219632251,324.78859076066664L586.5020639858701,344.1470589920469M457.05978698302835,149.74801269740783L518.0666231037319,169.20579383576265M545.4590743756115,53.03865675945952L545.4590743756115,331.05663241230883M545.4590743756115,331.05663241230883L586.5020639858701,344.1470589920469" style="fill:none;stroke:rgb(0,0,0);stroke-width:1;stroke-linecap:round"></path><path d="M586.50206398587,344.1470589920469L545.4590743756114,331.05663241230883L614.2558219632251,324.78859076066664zM424.51072028953956,-136.2725091542828L424.51072028953945,386.7954871109732L396.75696231218456,-116.9140409229025zM465.5537098997983,-123.18208257454471L465.5537098997981,399.8859136907113L424.51072028953956,-136.2725091542828zM614.2558219632251,324.78859076066664L573.2128323529665,311.6981641809285L573.2128323529665,33.680188528079206z" style="fill:rgb(238,238,238); fill-opacity: 0.32"></path><path d="M586.5020639858702,66.12908333919759L586.5020639858701,344.1470589920469" style="fill:none;stroke:rgb(0,0,0);stroke-width:1;stroke-linecap:round"></path><path d="M573.2128323529665,311.6981641809285L545.4590743756114,331.05663241230883L545.4590743756114,53.038656759459485z" style="fill:rgb(238,238,238); fill-opacity: 0.32"></path><path d="M509.4119634382237,179.6691033566353L518.066623103732,183.53062103339838L553.9529972923812,180.6515474465596z" style="fill:rgb(0,0,0)"></path><path d="M396.75696231218456,-116.9140409229025L396.75696231218444,406.1539553423535L437.79995192244326,-103.82361434316438z" style="fill:rgb(238,238,238); fill-opacity: 0.32"></path><path d="M523.4154967291196,153.88588292678753L512.7177494783448,161.3476472208493L553.9529972923812,180.6515474465596z" style="fill:rgb(0,0,0)"></path><path d="M437.79995192244326,-103.82361434316438L437.79995192244314,419.2443819220917L465.5537098997983,-123.18208257454471z" style="fill:rgb(238,238,238); fill-opacity: 0.32"></path><path d="M512.7177494783448,161.3476472208493L509.4119634382237,179.6691033566353L553.9529972923812,180.6515474465596z" style="fill:rgb(0,0,0)"></path><path d="M586.50206398587,344.1470589920469L614.2558219632251,324.78859076066664L614.2558219632251,46.770615107817314zM545.4590743756114,331.05663241230883L586.50206398587,344.1470589920469L586.50206398587,66.12908333919759zM573.2128323529665,33.680188528079206L573.2128323529665,311.6981641809285L545.4590743756114,53.038656759459485zM614.2558219632251,46.770615107817314L614.2558219632251,324.78859076066664L573.2128323529665,33.680188528079206z" style="fill:rgb(238,238,238); fill-opacity: 0.32"></path><path d="M605.7618990464551,197.1757000735664L666.7687351671588,216.6334812119212M465.5537098997982,-123.18208257454471L424.5107202895395,-136.27250915428277M424.5107202895395,-136.27250915428277L396.75696231218456,-116.91404092290247M762.9579340266521,299.17555562422524L721.9149444163934,286.08512904448713M721.9149444163934,154.1485984168378L721.9149444163934,286.08512904448713M721.9149444163934,286.08512904448713L694.1611864390385,305.4435972758675" style="fill:none;stroke:rgb(0,0,0);stroke-width:1;stroke-linecap:round"></path><path d="M545.4590743756114,53.038656759459485L545.4590743756114,331.05663241230883L586.50206398587,66.12908333919759zM586.50206398587,66.12908333919759L586.50206398587,344.1470589920469L614.2558219632251,46.770615107817314zM694.1611864390385,305.4435972758675L721.9149444163936,286.08512904448713L762.9579340266523,299.17555562422524z" style="fill:rgb(238,238,238); fill-opacity: 0.32"></path><path d="M614.2558219632251,46.770615107817314L573.2128323529665,33.68018852807924M573.2128323529665,33.68018852807924L545.4590743756115,53.03865675945952M465.5537098997982,-123.18208257454471L437.7999519224432,-103.82361434316438M762.9579340266521,167.23902499657592L762.9579340266521,299.17555562422524M762.9579340266521,299.17555562422524L735.2041760492972,318.53402385560554" style="fill:none;stroke:rgb(0,0,0);stroke-width:1;stroke-linecap:round"></path><path d="M437.79995192244326,-103.82361434316438L465.5537098997983,-123.18208257454471L424.51072028953956,-136.2725091542828zM396.75696231218456,-116.9140409229025L437.79995192244326,-103.82361434316438L424.51072028953956,-136.2725091542828zM762.9579340266523,299.17555562422524L721.9149444163936,286.08512904448713L721.9149444163936,154.1485984168378z" style="fill:rgb(238,238,238); fill-opacity: 0.32"></path><path d="M396.75696231218456,-116.91404092290247L437.7999519224432,-103.82361434316438M694.1611864390385,173.5070666482181L694.1611864390385,305.4435972758675M694.1611864390385,305.4435972758675L735.2041760492972,318.53402385560554" style="fill:none;stroke:rgb(0,0,0);stroke-width:1;stroke-linecap:round"></path><path d="M658.1140755016504,227.0967907327939L666.7687351671589,230.958308409557L702.6551093558082,228.07923482271823zM672.1176087925464,201.31357030294612L661.4198615417714,208.77533459700788L702.6551093558082,228.07923482271823z" style="fill:rgb(0,0,0)"></path><path d="M735.2041760492972,318.53402385560554L694.1611864390385,305.4435972758675L762.9579340266523,299.17555562422524z" style="fill:rgb(238,238,238); fill-opacity: 0.32"></path><path d="M661.4198615417714,208.77533459700788L658.1140755016504,227.0967907327939L702.6551093558082,228.07923482271823z" style="fill:rgb(0,0,0)"></path><path d="M614.2558219632251,46.770615107817314L586.5020639858702,66.12908333919759" style="fill:none;stroke:rgb(0,0,0);stroke-width:1;stroke-linecap:round"></path><path d="M721.9149444163936,286.08512904448713L694.1611864390385,305.4435972758675L694.1611864390385,173.50706664821814zM586.50206398587,66.12908333919759L614.2558219632251,46.770615107817314L573.2128323529665,33.680188528079206zM545.4590743756114,53.038656759459485L586.50206398587,66.12908333919759L573.2128323529665,33.680188528079206z" style="fill:rgb(238,238,238); fill-opacity: 0.32"></path><path d="M545.4590743756115,53.03865675945952L586.5020639858702,66.12908333919759" style="fill:none;stroke:rgb(0,0,0);stroke-width:1;stroke-linecap:round"></path><path d="M721.9149444163936,154.1485984168378L721.9149444163936,286.08512904448713L694.1611864390385,173.50706664821814zM735.2041760492972,318.53402385560554L762.9579340266523,299.17555562422524L762.9579340266523,167.2390249965759z" style="fill:rgb(238,238,238); fill-opacity: 0.32"></path><path d="M735.2041760492972,186.59749322795622L735.2041760492972,318.53402385560554" style="fill:none;stroke:rgb(0,0,0);stroke-width:1;stroke-linecap:round"></path><path d="M762.9579340266523,167.2390249965759L762.9579340266523,299.17555562422524L721.9149444163936,154.1485984168378z" style="fill:rgb(238,238,238); fill-opacity: 0.32"></path><path d="M762.9579340266521,167.23902499657592L721.9149444163934,154.1485984168378M721.9149444163934,154.1485984168378L694.1611864390385,173.5070666482181" style="fill:none;stroke:rgb(0,0,0);stroke-width:1;stroke-linecap:round"></path><path d="M694.1611864390385,305.4435972758675L735.2041760492972,318.53402385560554L735.2041760492972,186.59749322795622zM694.1611864390385,173.50706664821814L694.1611864390385,305.4435972758675L735.2041760492972,186.59749322795622z" style="fill:rgb(238,238,238); fill-opacity: 0.32"></path><path d="M762.9579340266521,167.23902499657592L735.2041760492972,186.59749322795622" style="fill:none;stroke:rgb(0,0,0);stroke-width:1;stroke-linecap:round"></path><path d="M735.2041760492972,186.59749322795622L735.2041760492972,318.53402385560554L762.9579340266523,167.2390249965759zM735.2041760492972,186.59749322795622L762.9579340266523,167.2390249965759L721.9149444163936,154.1485984168378zM694.1611864390385,173.50706664821814L735.2041760492972,186.59749322795622L721.9149444163936,154.1485984168378z" style="fill:rgb(238,238,238); fill-opacity: 0.32"></path><path d="M694.1611864390385,173.5070666482181L735.2041760492972,186.59749322795622" style="fill:none;stroke:rgb(0,0,0);stroke-width:1;stroke-linecap:round"></path></svg>